<svg width="20" height="20" viewBox="0 0 20 20" fill="none" xmlns="http://www.w3.org/2000/svg">
<path d="M0.00103885 18.5589C0.00103885 18.9551 0.138167 19.2979 0.412424 19.5875C0.68668 19.877 1.02188 20.0141 1.41803 19.9989H11.4284V19.7474C10.5752 19.4579 9.88189 18.9399 9.34862 18.1932C8.81534 17.4466 8.55632 16.6162 8.57156 15.702C8.57156 14.742 8.85343 13.8887 9.41718 13.1421C9.98093 12.3955 10.7123 11.8927 11.6112 11.6336C11.7941 11.0546 12.0836 10.5365 12.4797 10.0794C12.8759 9.62231 13.3558 9.26423 13.9196 9.0052C14.1633 8.35 14.2852 7.72527 14.2852 7.13102V5.71396C14.2852 4.12929 13.7215 2.78079 12.594 1.66848C11.4665 0.556159 10.1257 0 8.57156 0C7.01744 0 5.66901 0.556159 4.52627 1.66848C3.38354 2.78079 2.8274 4.12929 2.85788 5.71396V7.13102C2.85788 8.13668 3.10166 9.06615 3.58923 9.91943C4.0768 10.7727 4.73958 11.466 5.57759 11.9993C4.86147 12.2583 4.16822 12.6164 3.49781 13.0735C2.82741 13.5307 2.23318 14.0411 1.71514 14.6049C1.1971 15.1687 0.778099 15.7934 0.458133 16.4791C0.138167 17.1647 -0.0141976 17.858 0.00103885 18.5589ZM11.4284 15.702C11.4284 16.0981 11.5655 16.441 11.8398 16.7305C12.114 17.02 12.4492 17.1571 12.8454 17.1419H14.2852V18.5589C14.2852 18.9703 14.4224 19.3132 14.6966 19.5875C14.9709 19.8617 15.3061 19.9989 15.7022 19.9989C16.0984 19.9989 16.4336 19.8617 16.7078 19.5875C16.9821 19.3132 17.1268 18.9703 17.1421 18.5589V17.1419H18.5591C18.9552 17.1419 19.2904 17.0047 19.5647 16.7305C19.8389 16.4562 19.9837 16.1134 19.9989 15.702C20.0141 15.2906 19.8694 14.9553 19.5647 14.6963C19.2599 14.4373 18.9247 14.3001 18.5591 14.2849H17.1421V12.845C17.1421 12.4488 16.9973 12.1136 16.7078 11.8393C16.4183 11.5651 16.0831 11.4279 15.7022 11.4279C15.3213 11.4279 14.9861 11.5651 14.6966 11.8393C14.4071 12.1136 14.27 12.4488 14.2852 12.845V14.2849H12.8454C12.4492 14.2849 12.114 14.422 11.8398 14.6963C11.5655 14.9706 11.4284 15.3058 11.4284 15.702Z" fill="currentColor"/>
</svg>
