<svg width="637" height="667" viewBox="0 0 637 667" fill="none" xmlns="http://www.w3.org/2000/svg">
<path d="M601.995 411C577.995 383.667 542.329 366.667 502.995 366.667C465.662 366.667 431.662 382 407.329 407C383.995 431 369.662 464 369.662 500C369.662 525 376.662 548.667 388.995 568.667C395.662 580 404.329 590.334 414.329 599C437.662 620.334 468.662 633.334 502.995 633.334C551.662 633.334 593.995 607.334 616.995 568.667C623.995 557.334 629.329 544.334 632.329 531C634.995 521 636.329 510.667 636.329 500C636.329 466 623.329 434.667 601.995 411ZM552.995 524.334H527.995V550.334C527.995 564 516.662 575.334 502.995 575.334C489.329 575.334 477.995 564 477.995 550.334V524.334H452.995C439.329 524.334 427.995 513 427.995 499.334C427.995 485.667 439.329 474.334 452.995 474.334H477.995V450.667C477.995 437 489.329 425.667 502.995 425.667C516.662 425.667 527.995 437 527.995 450.667V474.334H552.995C566.662 474.334 577.995 485.667 577.995 499.334C577.995 513 566.662 524.334 552.995 524.334Z" fill="currentColor"/>
<path opacity="0.4" d="M605.998 650C605.998 659.333 598.665 666.667 589.331 666.667H16.6667C7.33333 666.667 0 659.333 0 650C0 512 136 400 303.001 400C337.335 400 370.668 404.667 401.335 413.667C381.668 437 369.668 467.333 369.668 500C369.668 525 376.665 548.667 388.998 568.667C395.665 580 404.331 590.333 414.331 599C437.665 620.333 468.668 633.333 503.001 633.333C540.335 633.333 574.001 618 598.001 593.333C603.335 611.333 605.998 630.333 605.998 650Z" fill="currentColor"/>
<path d="M302.995 333.333C395.041 333.333 469.661 258.714 469.661 166.667C469.661 74.6193 395.041 0 302.995 0C210.947 0 136.328 74.6193 136.328 166.667C136.328 258.714 210.947 333.333 302.995 333.333Z" fill="currentColor"/>
</svg>
