<svg width="406" height="569" viewBox="0 0 406 569" fill="none" xmlns="http://www.w3.org/2000/svg">
<path d="M30.2812 98.3906H376.688C383.836 98.3906 389.578 103.86 389.578 110.578V150.344C389.578 157.061 383.836 162.531 376.688 162.531H30.2812C23.133 162.531 17.3906 157.061 17.3906 150.344V110.578C17.3906 103.86 23.133 98.3906 30.2812 98.3906Z" fill="white" stroke="#FF4F4F" stroke-width="0.78125"/>
<path d="M324.719 163.5V163.578H364.797V528.547C364.797 550.298 347.056 567.891 325.141 567.891H81.0781C59.2417 567.891 41.5 550.299 41.5 528.547V163.5H324.719Z" fill="white" stroke="#FF4F4F"/>
<path d="M56.3281 511.641C56.3281 524.907 67.2095 535.703 80.625 535.703H324.688C338.103 535.703 348.984 524.907 348.984 511.641V161.875H56.3281V511.641ZM31.9531 130.234H373.281V97.0312H31.9531V130.234ZM146.172 65.3125H260.469V32.1094H146.172V65.3125ZM24.6875 161.391L24.3643 161.334C10.7887 158.943 0.390625 147.376 0.390625 133.438V93.6719C0.390629 78.0371 13.4099 65.3125 29.4531 65.3125H114.531V16.25C114.531 7.48137 121.622 0.390629 130.391 0.390625H276.25C285.019 0.390635 292.109 7.48137 292.109 16.25V65.3125H375.859C391.904 65.3125 404.999 78.1158 404.922 93.6699V133.438C404.922 147.377 394.601 158.943 380.948 161.334L380.625 161.391V511.562C380.625 542.283 355.567 567.266 324.688 567.266H80.625C49.7456 567.266 24.6875 542.283 24.6875 511.562V161.391Z" fill="#FF4F4F" stroke="#FF4F4F" stroke-width="0.78125"/>
<path d="M283.75 212.422C292.519 212.422 299.609 219.513 299.609 228.281V471.562C299.609 480.331 292.519 487.422 283.75 487.422C274.981 487.422 267.891 480.331 267.891 471.562V228.281C267.891 219.513 274.981 212.422 283.75 212.422ZM121.562 211.953C130.331 211.953 137.422 219.044 137.422 227.812V471.016C137.422 479.784 130.331 486.875 121.562 486.875C113.009 486.875 106.002 480.004 105.712 471.497L105.703 471.09V227.812C105.703 219.044 112.794 211.953 121.562 211.953ZM202.656 211.953C211.425 211.953 218.516 219.044 218.516 227.812V471.016C218.516 479.784 211.425 486.875 202.656 486.875C193.886 486.875 186.797 479.783 186.797 471.094V227.812C186.797 219.044 193.888 211.953 202.656 211.953Z" fill="#FF4F4F" stroke="#FF4F4F" stroke-width="0.78125"/>
</svg>
