<svg width="645" height="645" viewBox="0 0 645 645" fill="none" xmlns="http://www.w3.org/2000/svg">
<path d="M22.5 222.5H622.5M155.833 22.5V89.1667M489.167 22.5V89.1667M122.5 322.5H189.167M289.167 322.5H355.833M455.833 322.5H522.5M122.5 422.5H189.167M289.167 422.5H355.833M455.833 422.5H522.5M122.5 522.5H189.167M289.167 522.5H355.833M455.833 522.5H522.5M129.167 622.5H515.833C553.17 622.5 571.84 622.5 586.1 615.233C598.643 608.843 608.843 598.643 615.233 586.1C622.5 571.84 622.5 553.17 622.5 515.833V195.833C622.5 158.496 622.5 139.828 615.233 125.567C608.843 113.023 598.643 102.824 586.1 96.433C571.84 89.1667 553.17 89.1667 515.833 89.1667H129.167C91.83 89.1667 73.1613 89.1667 58.9007 96.433C46.3563 102.824 36.1577 113.023 29.7663 125.567C22.5 139.828 22.5 158.496 22.5 195.833V515.833C22.5 553.17 22.5 571.84 29.7663 586.1C36.1577 598.643 46.3563 608.843 58.9007 615.233C73.1613 622.5 91.8297 622.5 129.167 622.5Z" stroke="currentColor" stroke-width="45" stroke-linecap="round"/>
</svg>
