<svg width="812" height="812" viewBox="0 0 812 812" fill="none" xmlns="http://www.w3.org/2000/svg">
<path d="M556.006 3C564.573 3 571.506 9.93459 571.506 18.5V78.0479H756.006C785.278 78.0479 809.006 101.776 809.006 131.048V756C809.006 785.271 785.278 809 756.006 809H56C26.7294 809 3 785.271 3 756V131.048C3 101.776 26.7294 78.0479 56 78.0479H253.006V18.5C253.006 9.93453 259.94 3.00021 268.506 3C277.073 3 284.006 9.93459 284.006 18.5V78.0479H540.506V18.5C540.506 9.93454 547.44 3.00023 556.006 3ZM34 756C34 768.128 43.873 778 56 778H756.006C768.134 778 778.006 768.128 778.006 756V246.499H34V756ZM56 109.048C43.8729 109.048 34 118.919 34 131.048L34.0059 215.5H778.006V131.048C778.006 118.919 768.134 109.048 756.006 109.048H571.506V143.5C571.506 152.065 564.573 159 556.006 159C547.44 159 540.506 152.065 540.506 143.5V109.048H284.006V143.5C284.006 152.065 277.073 159 268.506 159C259.94 159 253.006 152.065 253.006 143.5V109.048H56Z" fill="#72777C" stroke="#72777C" stroke-width="6"/>
<path d="M234.006 303V409H128.006V303H234.006ZM159.006 378H203.006V334H159.006V378Z" fill="#72777C" stroke="#72777C" stroke-width="6"/>
<path d="M459.006 303V409H353.006V303H459.006ZM384.006 378H428.006V334H384.006V378Z" fill="#72777C" stroke="#72777C" stroke-width="6"/>
<path d="M684.006 303V409H578.006V303H684.006ZM609.006 378H653.006V334H609.006V378Z" fill="#72777C" stroke="#72777C" stroke-width="6"/>
<path d="M234.006 453V559H128.006V453H234.006ZM159.006 528H203.006V484H159.006V528Z" fill="#72777C" stroke="#72777C" stroke-width="6"/>
<path d="M459.006 453V559H353.006V453H459.006ZM384.006 528H428.006V484H384.006V528Z" fill="#72777C" stroke="#72777C" stroke-width="6"/>
<path d="M234.006 603V709H128.006V603H234.006ZM159.006 678H203.006V634H159.006V678Z" fill="#72777C" stroke="#72777C" stroke-width="6"/>
<path d="M459.006 603V709H353.006V603H459.006ZM384.006 678H428.006V634H384.006V678Z" fill="#72777C" stroke="#72777C" stroke-width="6"/>
<path d="M684.006 453V559H578.006V453H684.006ZM609.006 528H653.006V484H609.006V528Z" fill="#72777C" stroke="#72777C" stroke-width="6"/>
<path d="M684.006 603V709H578.006V603H684.006ZM609.006 678H653.006V634H609.006V678Z" fill="#72777C" stroke="#72777C" stroke-width="6"/>
</svg>
