<svg width="800" height="700" viewBox="0 0 800 700" fill="none" xmlns="http://www.w3.org/2000/svg">
<path fill-rule="evenodd" clip-rule="evenodd" d="M700 100H625L600 50C585.275 20.925 577.6 0 550 0H250C222.4 0 213.25 23.85 200 50L175 100H100C44.775 100 0 144.775 0 200V600C0 655.225 44.775 700 100 700H700C755.225 700 800 655.225 800 600V200C800 144.775 755.225 100 700 100ZM400 600C289.55 600 200 510.45 200 400C200 289.55 289.55 200 400 200C510.45 200 600 289.55 600 400C600 510.45 510.45 600 400 600ZM400 250C317.175 250 250 317.175 250 400C250 482.825 317.175 550 400 550C482.825 550 550 482.825 550 400C550 317.175 482.825 250 400 250Z" fill="currentColor"/>
</svg>
