<svg width="700" height="700" viewBox="0 0 700 700" fill="none" xmlns="http://www.w3.org/2000/svg">
<path fill-rule="evenodd" clip-rule="evenodd" d="M0 350C0 156.7 156.7 0 350 0C543.3 0 700 156.7 700 350C700 543.3 543.3 700 350 700C156.7 700 0 543.3 0 350ZM473.755 307.323C483.517 297.56 483.517 281.73 473.755 271.967C463.992 262.205 448.162 262.205 438.4 271.967L314.655 395.713L261.622 342.677C251.86 332.915 236.03 332.915 226.268 342.677C216.505 352.442 216.505 368.27 226.268 378.033L296.978 448.745C306.743 458.508 322.57 458.508 332.332 448.745L473.755 307.323Z" fill="currentColor"/>
</svg>
