<svg width="667" height="667" viewBox="0 0 667 667" fill="none" xmlns="http://www.w3.org/2000/svg">
<path d="M666.667 333.333C666.667 517.427 517.427 666.667 333.333 666.667C149.238 666.667 0 517.427 0 333.333C0 149.238 149.238 0 333.333 0C517.427 0 666.667 149.238 666.667 333.333Z" fill="#1A73E8"/>
<path fill-rule="evenodd" clip-rule="evenodd" d="M333.333 175C347.14 175 358.333 186.193 358.333 200V322.977L434.343 398.99C444.106 408.753 444.106 424.58 434.343 434.343C424.58 444.107 408.753 444.107 398.99 434.343L315.656 351.01C310.966 346.323 308.333 339.963 308.333 333.333V200C308.333 186.193 319.526 175 333.333 175Z" fill="white"/>
</svg>
