<svg width="700" height="600" viewBox="0 0 700 600" fill="none" xmlns="http://www.w3.org/2000/svg">
<path d="M367.5 433.333H56.9L255.667 234.567L333.333 294.333L411 234.533L464.433 287.967C475.108 282.312 486.319 277.734 497.9 274.3L437.633 214.033L633.333 63.3333V287.333C645.18 293.224 656.356 300.377 666.667 308.667V50C666.631 36.75 661.352 24.0527 651.983 14.6835C642.614 5.31433 629.917 0.0351928 616.667 0H50C36.75 0.0351928 24.0527 5.31433 14.6835 14.6835C5.31433 24.0527 0.0351928 36.75 0 50V416.667C0 429.927 5.26784 442.645 14.6447 452.022C24.0215 461.399 36.7392 466.667 50 466.667H367.5C367 461.167 366.667 455.633 366.667 450C366.667 444.367 367 438.833 367.5 433.333ZM33.3333 409.767V63.3667L229.033 214.033L33.3333 409.767ZM616.667 33.3333C616.967 33.3333 617.2 33.5 617.5 33.5L333.333 252.333L49.1667 33.5C49.4667 33.5 49.7 33.3333 50 33.3333H616.667ZM550 300C510.231 300.044 472.104 315.862 443.983 343.983C415.862 372.104 400.044 410.231 400 450C400.238 455.583 400.794 461.147 401.667 466.667C405.681 503.237 423.026 537.048 450.387 561.642C477.748 586.237 513.21 599.892 550 600H566.667V566.667H550C522.017 566.588 494.997 556.441 473.881 538.079C452.765 519.717 438.963 494.368 435 466.667C434.041 461.159 433.484 455.589 433.333 450C433.318 427.03 440.088 404.567 452.793 385.43C465.498 366.293 483.572 351.336 504.747 342.434C525.922 333.532 549.255 331.084 571.817 335.395C594.379 339.706 615.165 350.585 631.567 366.667H600V383.767C585.658 372.741 568.09 366.733 550 366.667C536.341 366.628 522.881 369.947 510.806 376.333C498.731 382.719 488.411 391.975 480.754 403.286C473.097 414.598 468.338 427.618 466.896 441.202C465.454 454.785 467.373 468.514 472.484 481.181C477.595 493.849 485.741 505.065 496.206 513.844C506.671 522.623 519.134 528.694 532.497 531.525C545.86 534.355 559.714 533.857 572.839 530.074C585.965 526.292 597.959 519.341 607.767 509.833C613.508 519.034 622.091 526.114 632.216 530.001C642.341 533.888 653.456 534.37 663.88 531.375C674.303 528.381 683.467 522.071 689.985 513.403C696.502 504.734 700.018 494.179 700 483.333V450C699.524 410.365 683.568 372.488 655.54 344.46C627.512 316.432 589.635 300.476 550 300ZM550 500C539.693 499.967 529.649 496.745 521.246 490.777C512.843 484.809 506.493 476.387 503.067 466.667C501.093 461.329 500.055 455.691 500 450C500 436.739 505.268 424.021 514.645 414.645C524.021 405.268 536.739 400 550 400C563.261 400 575.978 405.268 585.355 414.645C594.732 424.021 600 436.739 600 450C599.945 455.691 598.907 461.329 596.933 466.667C593.507 476.387 587.157 484.809 578.754 490.777C570.351 496.745 560.307 499.967 550 500ZM666.667 483.333C666.667 487.754 664.911 491.993 661.785 495.118C658.659 498.244 654.42 500 650 500C645.58 500 641.34 498.244 638.215 495.118C635.089 491.993 633.333 487.754 633.333 483.333V368.433C654.276 390.483 666.173 419.594 666.667 450V483.333Z" fill="currentColor"/>
</svg>