<svg width="25" height="23" viewBox="0 0 25 23" fill="none" xmlns="http://www.w3.org/2000/svg">
<path d="M21.2793 7.16757C21.3112 7.19388 21.3432 7.22019 21.3761 7.24731C21.8501 7.63983 22.2847 8.0733 22.7176 8.51146C22.7445 8.53849 22.7713 8.56551 22.7989 8.59336C23.1572 8.95521 23.4891 9.3307 23.8013 9.735C23.8336 9.7763 23.866 9.81759 23.8993 9.86013C24.1152 10.1367 24.3269 10.4166 24.5369 10.6978C24.5633 10.7331 24.5897 10.7684 24.6169 10.8047C24.6865 10.8987 24.7548 10.9936 24.8226 11.0889C24.8604 11.1417 24.8983 11.1944 24.9373 11.2488C25.0251 11.4236 25.0101 11.4759 24.9572 11.6606C24.8954 11.7698 24.8954 11.7698 24.817 11.877C24.7878 11.9174 24.7586 11.9577 24.7285 11.9992C24.6967 12.0419 24.6649 12.0846 24.6321 12.1286C24.5992 12.1734 24.5662 12.2181 24.5323 12.2643C23.9788 13.0104 23.3897 13.7172 22.7505 14.3885C22.7159 14.4249 22.6813 14.4612 22.6457 14.4987C22.2696 14.8925 21.8937 15.2766 21.4687 15.616C21.324 15.732 21.1856 15.8539 21.0462 15.9764C19.4361 17.3388 17.4958 18.3391 15.4636 18.8481C15.3918 18.8662 15.3918 18.8662 15.3186 18.8848C14.3861 19.1039 13.4496 19.1788 12.495 19.1723C12.4438 19.1722 12.3926 19.172 12.3398 19.1718C11.5028 19.1679 10.6984 19.115 9.8778 18.935C9.79848 18.9182 9.79848 18.9182 9.71756 18.9011C7.6585 18.4556 5.74369 17.4799 4.09824 16.1536C4.04609 16.1119 3.99393 16.0702 3.9402 16.0272C3.6309 15.7747 3.33699 15.5065 3.04679 15.2318C2.89461 15.0877 2.73947 14.9472 2.58439 14.8064C2.38936 14.6259 2.21057 14.442 2.04132 14.2366C1.92353 14.0967 1.79902 13.9642 1.67476 13.8302C1.31383 13.4341 0.99739 13.0046 0.68304 12.5699C0.653061 12.5286 0.623082 12.4873 0.592195 12.4447C0.503593 12.322 0.415823 12.1987 0.328384 12.0751C0.301399 12.0375 0.274413 11.9999 0.246609 11.9612C0.22185 11.9257 0.19709 11.8902 0.171581 11.8536C0.138893 11.8073 0.138893 11.8073 0.105545 11.76C0.038632 11.6345 0.011297 11.5357 0 11.3931C0.0498862 11.2839 0.0498862 11.2839 0.129917 11.1767C0.174282 11.1162 0.174282 11.1162 0.219543 11.0545C0.25221 11.0118 0.284876 10.9691 0.318533 10.9251C0.351843 10.8805 0.385153 10.8358 0.419473 10.7898C1.08588 9.90333 1.80124 9.07528 2.5731 8.28296C2.62566 8.22899 2.67815 8.17495 2.73055 8.12082C3.08027 7.76026 3.44354 7.42727 3.83553 7.11408C3.89313 7.06758 3.89313 7.06758 3.9519 7.02015C4.74767 6.38219 5.56779 5.8321 6.4626 5.34897C6.49788 5.3298 6.53316 5.31063 6.56951 5.29089C11.1848 2.80191 16.7539 3.5727 21.2793 7.16757ZM8.9846 7.32803C8.92888 7.37275 8.87307 7.41734 8.81712 7.46175C7.8525 8.33464 7.25387 9.63965 7.10295 10.9351C7.09844 11.0164 7.09516 11.0978 7.0931 11.1792C7.08914 11.2479 7.08914 11.2479 7.0851 11.3179C7.03847 12.7003 7.53146 14.125 8.45918 15.1373C8.48351 15.164 8.50784 15.1907 8.53291 15.2181C9.56986 16.3445 10.8612 16.8892 12.3581 17.0247C13.699 17.0686 15.0988 16.5484 16.0777 15.6187C16.117 15.5815 16.117 15.5815 16.1571 15.5436C17.2573 14.4939 17.8181 13.1647 17.9298 11.642C17.9585 10.2868 17.4939 8.92759 16.6031 7.9164C16.5592 7.85968 16.5154 7.80287 16.4718 7.74591C15.5711 6.71446 14.2134 6.09683 12.8727 5.99083C11.4545 5.92052 10.0505 6.35494 8.9846 7.32803Z" fill="#1A73E8"/>
<path d="M13.0825 8.1838C13.0838 8.24585 13.0852 8.3079 13.0866 8.37184C13.1095 9.1021 13.1905 9.72384 13.713 10.2698C14.19 10.7128 14.7028 10.8555 15.3319 10.8883C15.3733 10.8906 15.4147 10.8929 15.4574 10.8953C15.5589 10.9009 15.6605 10.9063 15.7621 10.9117C15.8044 11.9462 15.6729 12.9051 14.9641 13.7065C14.3069 14.413 13.5034 14.8047 12.5439 14.833C11.622 14.8132 10.7971 14.4627 10.1401 13.8001C9.50793 13.0661 9.20773 12.2473 9.23236 11.2696C9.30559 10.2773 9.75202 9.5375 10.4587 8.88625C11.2467 8.24109 12.1125 8.15564 13.0825 8.1838Z" fill="#1A73E8"/>
<path d="M20.3863 18.7209C20.7404 19.0166 21.0592 19.3465 21.3813 19.677C21.4378 19.7349 21.4943 19.7927 21.5509 19.8505C21.6882 19.9909 21.8254 20.1314 21.9625 20.2721C21.8952 20.4229 21.8254 20.5317 21.7092 20.6474C21.6811 20.6756 21.653 20.7039 21.6241 20.733C21.5949 20.7618 21.5657 20.7907 21.5356 20.8204C21.506 20.85 21.4764 20.8797 21.4459 20.9102C21.3732 20.983 21.3001 21.0555 21.2269 21.1279C21.0015 21.0395 20.8516 20.8663 20.6859 20.6946C20.6547 20.6627 20.6235 20.6308 20.5914 20.5979C20.4921 20.4962 20.3932 20.3942 20.2943 20.2922C20.227 20.223 20.1596 20.154 20.0922 20.0849C19.9272 19.9158 19.7626 19.7464 19.5981 19.5768C19.6478 19.5173 19.6976 19.4578 19.7474 19.3984C19.7751 19.3653 19.8028 19.3322 19.8313 19.2981C19.9389 19.1726 20.053 19.0551 20.1695 18.9382C20.2106 18.8969 20.2516 18.8556 20.2939 18.8131C20.3244 18.7827 20.3549 18.7523 20.3863 18.7209Z" fill="#1A73E8"/>
<path d="M21.1218 1.87207C21.27 1.94063 21.3768 2.01168 21.4905 2.1299C21.5182 2.15851 21.546 2.18713 21.5746 2.21661C21.6029 2.24633 21.6312 2.27604 21.6604 2.30666C21.7041 2.35186 21.7041 2.35186 21.7487 2.39797C21.8202 2.47204 21.8914 2.54644 21.9625 2.62091C21.8757 2.85041 21.7056 3.00297 21.5368 3.17167C21.5055 3.20342 21.4742 3.23517 21.4419 3.26789C21.342 3.36895 21.2418 3.46964 21.1416 3.57032C21.0737 3.6389 21.0058 3.7075 20.938 3.77612C20.7718 3.94405 20.6054 4.11163 20.4388 4.27904C20.3804 4.22845 20.322 4.1778 20.2636 4.12712C20.2311 4.09891 20.1986 4.07071 20.1651 4.04166C20.0418 3.93215 19.9264 3.81601 19.8116 3.69736C19.771 3.65557 19.7305 3.61379 19.6887 3.57074C19.6588 3.53971 19.6289 3.50868 19.5981 3.47672C19.8885 3.11616 20.2126 2.79169 20.5373 2.46378C20.5941 2.40623 20.6509 2.34867 20.7077 2.2911C20.8456 2.15128 20.9837 2.01163 21.1218 1.87207Z" fill="#1A73E8"/>
<path d="M4.57156 18.7209C4.63016 18.772 4.68876 18.823 4.74734 18.8741C4.79629 18.9167 4.79629 18.9167 4.84622 18.9602C4.95844 19.0586 5.06839 19.1587 5.17578 19.2625C5.21209 19.2969 5.24839 19.3312 5.28579 19.3666C5.35968 19.4698 5.35968 19.4698 5.34654 19.5734C5.27955 19.761 5.12952 19.8839 4.99168 20.0205C4.96027 20.0523 4.92886 20.084 4.89649 20.1168C4.7962 20.218 4.69539 20.3186 4.59454 20.4192C4.5264 20.4878 4.45829 20.5564 4.39023 20.625C4.2234 20.7931 4.05609 20.9606 3.88852 21.1279C3.74041 21.0594 3.63356 20.9883 3.5199 20.8701C3.49214 20.8415 3.46437 20.8129 3.43576 20.7834C3.40744 20.7537 3.37913 20.7239 3.34997 20.6933C3.32084 20.6632 3.29172 20.6331 3.26171 20.602C3.19018 20.5279 3.11898 20.4535 3.04785 20.3791C3.13467 20.1496 3.30481 19.997 3.47352 19.8283C3.50486 19.7966 3.5362 19.7648 3.56849 19.7321C3.66835 19.631 3.76857 19.5303 3.86881 19.4297C3.9367 19.3611 4.00457 19.2925 4.07241 19.2239C4.23852 19.0559 4.40495 18.8884 4.57156 18.7209Z" fill="#1A73E8"/>
<path d="M3.78343 1.87207C4.00155 1.96006 4.15112 2.12118 4.3148 2.28619C4.34495 2.3164 4.3751 2.3466 4.40616 2.37773C4.46958 2.44152 4.53285 2.50546 4.59599 2.56953C4.693 2.66765 4.79095 2.76473 4.88896 2.86181C4.95049 2.92394 5.01196 2.98614 5.07337 3.04839C5.10286 3.07737 5.13235 3.10635 5.16274 3.13621C5.35934 3.33874 5.35934 3.33874 5.36096 3.48599C5.30139 3.59413 5.24003 3.67028 5.15259 3.75669C5.12194 3.78738 5.0913 3.81806 5.05972 3.84967C5.02758 3.88104 4.99544 3.91242 4.96233 3.94474C4.91382 3.99304 4.91382 3.99304 4.86433 4.04231C4.7846 4.12159 4.7044 4.20036 4.6241 4.27904C4.26992 3.98344 3.95119 3.65352 3.62909 3.32294C3.57256 3.26512 3.51602 3.20731 3.45946 3.14952C3.32212 3.00912 3.18494 2.86855 3.04785 2.72788C3.1152 2.57711 3.18499 2.46833 3.30112 2.35263C3.32923 2.32436 3.35733 2.29609 3.38629 2.26696C3.41548 2.23814 3.44468 2.20932 3.47475 2.17963C3.50435 2.14998 3.53395 2.12033 3.56444 2.08978C3.6372 2.01697 3.71029 1.94449 3.78343 1.87207Z" fill="#1A73E8"/>
<path d="M11.9268 20.7534C12.3082 20.7534 12.6897 20.7534 13.0827 20.7534C13.0827 21.4948 13.0827 22.2361 13.0827 22.9999C12.7012 22.9999 12.3198 22.9999 11.9268 22.9999C11.9268 22.2586 11.9268 21.5172 11.9268 20.7534Z" fill="#1A73E8"/>
<path d="M11.9268 0C12.3082 0 12.6897 0 13.0827 0C13.0827 0.741346 13.0827 1.48269 13.0827 2.2465C12.7012 2.2465 12.3198 2.2465 11.9268 2.2465C11.9268 1.50516 11.9268 0.763811 11.9268 0Z" fill="#1A73E8"/>
</svg>
