<svg width="25" height="25" viewBox="0 0 25 25" fill="currentColor" xmlns="http://www.w3.org/2000/svg">
<path d="M13.1904 1.28296C14.5534 2.41688 15.7069 3.79372 16.583 5.34937C15.4995 5.66568 14.3636 5.85728 13.1904 5.91187V1.28296Z" fill="#64748B" stroke="#64748B" stroke-width="0.6"/>
<path d="M21.6533 4.41382C23.4111 6.40839 24.5261 8.97868 24.6836 11.8083H19.8154C19.7299 9.79887 19.2745 7.8861 18.5137 6.1355C19.63 5.67914 20.6811 5.0991 21.6533 4.41382Z" fill="#64748B" stroke="#64748B" stroke-width="0.6"/>
<path d="M14.2915 0.40625C16.7249 0.764808 18.9227 1.84216 20.6675 3.41699C19.8075 4.00262 18.8832 4.49819 17.9058 4.89062C16.9786 3.18258 15.7506 1.66488 14.2915 0.40625Z" fill="#64748B" stroke="#64748B" stroke-width="0.6"/>
<path d="M24.6855 13.1914C24.515 16.253 23.221 19.011 21.208 21.0645C20.2717 20.4504 19.2681 19.9305 18.208 19.5225C19.1518 17.5975 19.7192 15.4561 19.8154 13.1914H24.6855Z" fill="#64748B" stroke="#64748B" stroke-width="0.6"/>
<path d="M18.4326 13.1914C18.3339 15.3045 17.7876 17.298 16.8848 19.0811C15.7031 18.7434 14.4662 18.5407 13.1904 18.4863V13.1914H18.4326Z" fill="#64748B" stroke="#64748B" stroke-width="0.6"/>
<path d="M11.8091 13.1914V18.4863C10.5332 18.5405 9.29558 18.7432 8.11377 19.0811C7.21142 17.2978 6.66629 15.3038 6.56787 13.1914H11.8091Z" fill="#64748B" stroke="#64748B" stroke-width="0.6"/>
<path d="M13.1904 19.8704C14.2186 19.9184 15.2185 20.0717 16.1797 20.3225C15.3637 21.6046 14.3538 22.7492 13.1904 23.717V19.8704Z" fill="#64748B" stroke="#64748B" stroke-width="0.6"/>
<path d="M17.21 6.60278C17.9192 8.20659 18.3464 9.96221 18.4326 11.8088H13.1904V7.29614C14.584 7.23649 15.9305 6.99889 17.21 6.60278Z" fill="#64748B" stroke="#64748B" stroke-width="0.6"/>
<path d="M7.78955 6.60278C9.06872 6.99894 10.4155 7.23643 11.8091 7.29614V11.8088H6.56689C6.65311 9.9623 7.08034 8.20653 7.78955 6.60278Z" fill="#64748B" stroke="#64748B" stroke-width="0.6"/>
<path d="M10.708 0.40625C9.24884 1.66483 8.0199 3.18245 7.09277 4.89062C6.11579 4.49848 5.19162 4.00245 4.33203 3.41699C6.07672 1.84193 8.27468 0.764851 10.708 0.40625Z" fill="#64748B" stroke="#64748B" stroke-width="0.6"/>
<path d="M11.8091 23.717C10.6458 22.7496 9.63574 21.6046 8.81982 20.3225C9.78086 20.0719 10.7809 19.9184 11.8091 19.8704V23.717Z" fill="#64748B" stroke="#64748B" stroke-width="0.6"/>
<path d="M17.5391 20.7507C18.4551 21.0898 19.3275 21.5189 20.1465 22.0271C18.4932 23.3603 16.4883 24.27 14.291 24.5935C15.5653 23.4947 16.6635 22.1987 17.5391 20.7507Z" fill="#64748B" stroke="#64748B" stroke-width="0.6"/>
<path d="M7.46045 20.7505C8.33644 22.1995 9.43566 23.496 10.7104 24.5952C8.51214 24.2718 6.50589 23.3607 4.85205 22.0269C5.67164 21.5185 6.54431 21.0896 7.46045 20.7505Z" fill="#64748B" stroke="#64748B" stroke-width="0.6"/>
<path d="M5.18457 13.1914C5.28117 15.456 5.84757 17.5978 6.79102 19.5225C5.7309 19.9304 4.72807 20.4505 3.79199 21.0645C1.77895 19.0115 0.484105 16.2533 0.313477 13.1914H5.18457Z" fill="#64748B" stroke="#64748B" stroke-width="0.6"/>
<path d="M11.8091 5.91187C10.6363 5.85748 9.50027 5.66578 8.4165 5.34937C9.29269 3.79371 10.446 2.4158 11.8091 1.28198V5.91187Z" fill="#64748B" stroke="#64748B" stroke-width="0.6"/>
<path d="M3.3457 4.41382C4.31792 5.09912 5.36913 5.67888 6.48535 6.1355C5.72461 7.88608 5.26939 9.799 5.18359 11.8083H0.316406C0.473882 8.97885 1.58815 6.40834 3.3457 4.41382Z" fill="currentColor" stroke="currentColor" stroke-width="0.6"/>
</svg>
