<svg width="25" height="18" viewBox="0 0 25 18" fill="none" xmlns="http://www.w3.org/2000/svg">
<path d="M8.16465 2.42542C8.13024 2.49626 8.13024 2.49626 8.09514 2.56854C7.7954 3.22286 7.68598 3.8382 7.65886 4.6063C7.63242 5.21541 7.46424 5.76118 7.2719 6.30486C7.17363 6.6019 7.14774 6.86746 7.18964 7.1898C7.27826 7.47621 7.37484 7.60896 7.57964 7.72663C8.06019 7.90575 8.49638 7.62943 8.92409 7.34681C9.34195 6.99551 9.5665 6.41008 9.77342 5.82256C10.0957 4.94244 10.423 4.06578 11.1228 3.68047C11.3524 3.58472 11.5503 3.55814 11.7741 3.69332C12.0978 3.96953 12.3793 4.34556 12.6644 4.69122C12.8123 4.87024 12.9628 5.04383 13.1159 5.21443C13.3211 5.44317 13.5222 5.67754 13.7222 5.91482C13.9233 6.15335 14.1255 6.38911 14.3316 6.61941C14.5679 6.88339 14.7987 7.1552 15.0292 7.42859C15.2433 7.68211 15.4611 7.92888 15.6804 8.17381C15.8393 8.35418 15.9949 8.53928 16.1506 8.7248C16.3782 8.99585 16.6101 9.25601 16.8484 9.50908C18.2748 11.0322 18.2748 11.0322 18.451 12.1555C18.47 12.5072 18.4481 12.732 18.3048 13.0278C18.0581 13.342 17.7995 13.3736 17.476 13.3634C16.9258 13.3163 16.642 12.9701 16.2764 12.4516C16.1918 12.3334 16.1023 12.2251 16.0105 12.1177C15.8461 11.9221 15.6858 11.7206 15.526 11.518C15.3332 11.2737 15.1388 11.0326 14.9408 10.7964C14.825 10.6569 14.7109 10.5151 14.5967 10.373C14.5557 10.3225 14.5147 10.272 14.4725 10.22C14.4002 10.1302 14.3285 10.0395 14.2577 9.94735C14.0899 9.72857 14.0899 9.72857 13.8715 9.64748C13.8383 9.65578 13.8052 9.66409 13.771 9.67264C13.755 9.91873 13.755 9.91873 13.8364 10.1312C13.8666 10.1686 13.8968 10.206 13.9279 10.2446C13.9613 10.2868 13.9948 10.329 14.0292 10.3725C14.0646 10.4156 14.1001 10.4587 14.1366 10.5031C14.1705 10.5456 14.2045 10.5882 14.2394 10.632C14.4419 10.8849 14.6479 11.1322 14.8539 11.3796C14.9631 11.511 15.071 11.6442 15.1787 11.778C15.2198 11.8291 15.2609 11.8801 15.3032 11.9327C15.3446 11.9841 15.3859 12.0354 15.4285 12.0884C15.55 12.2389 15.6715 12.3894 15.793 12.5398C15.8782 12.6454 15.9633 12.7514 16.0482 12.8575C16.091 12.9109 16.1339 12.9644 16.178 13.0195C16.2166 13.0677 16.2552 13.116 16.295 13.1657C16.3989 13.2987 16.3989 13.2987 16.5138 13.3862C16.5985 13.4976 16.5985 13.4976 16.6227 13.7039C16.6107 14.7225 16.6107 14.7225 16.3786 15.0908C16.1494 15.3871 15.9356 15.5138 15.6159 15.5078C14.9715 15.4549 14.9715 15.4549 14.7308 15.0955C14.616 14.9305 14.5002 14.7746 14.3743 14.6258C14.196 14.4142 14.0228 14.1959 13.8502 13.9757C13.6232 13.6861 13.395 13.3987 13.1637 13.1157C13.0707 12.9995 12.98 12.882 12.8898 12.7618C12.8641 12.728 12.8384 12.6942 12.8119 12.6593C12.762 12.5936 12.7125 12.5273 12.6636 12.4602C12.5026 12.2499 12.3832 12.1771 12.1622 12.1555C12.1156 12.2712 12.1156 12.2712 12.1135 12.4239C12.1916 12.5488 12.2685 12.6501 12.3572 12.7594C12.4194 12.8458 12.4813 12.9325 12.5431 13.0195C12.6979 13.2326 12.858 13.4326 13.0239 13.6292C13.1676 13.8027 13.3078 13.9813 13.448 14.1602C13.6421 14.4077 13.8366 14.6544 14.033 14.8984C14.0908 14.9704 14.0908 14.9704 14.1498 15.0438C14.2191 15.1276 14.29 15.2092 14.3627 15.2876C14.5053 15.4418 14.5874 15.5366 14.6576 15.7707C14.6398 16.1796 14.505 16.4732 14.2859 16.7437C14.0513 17.0119 13.8354 17.0737 13.5333 17.0751C13.4475 17.0767 13.4475 17.0767 13.36 17.0785C13.0074 17.0291 12.7785 16.803 12.5248 16.4879C12.4648 16.4153 12.4048 16.3427 12.3448 16.2701C12.3145 16.2331 12.2842 16.196 12.253 16.1579C12.1104 15.9846 11.9657 15.8148 11.821 15.6449C11.6442 15.4372 11.4681 15.2287 11.2936 15.0174C11.2478 14.9622 11.2478 14.9622 11.201 14.906C11.1426 14.8357 11.0845 14.7652 11.0266 14.6942C10.8765 14.5144 10.7438 14.3858 10.5534 14.3028C10.4419 14.4262 10.4419 14.4262 10.4498 14.6132C10.4518 14.6658 10.4539 14.7184 10.4559 14.7725C10.4835 14.7891 10.5111 14.8056 10.5395 14.8226C10.6701 14.9212 10.7645 15.0395 10.8734 15.1794C11.0459 15.3974 11.2211 15.6063 11.4035 15.8085C11.641 16.0728 11.867 16.3508 12.091 16.6365C12.1882 16.7573 12.2861 16.8666 12.3907 16.9744C12.5035 17.1212 12.5035 17.1212 12.537 17.2848C12.4774 17.5902 12.3409 17.7946 12.1439 17.9516C11.7446 18.0825 11.3955 17.9356 11.0488 17.6518C10.8266 17.4571 10.6104 17.2499 10.3935 17.0442C10.1456 16.8117 9.89376 16.5874 9.64241 16.3621C9.58785 16.3131 9.5333 16.264 9.47875 16.215C9.31701 16.0696 9.15521 15.9244 8.99341 15.7791C8.89642 15.692 8.79942 15.6049 8.70243 15.5178C8.47163 15.3105 8.2408 15.1033 8.00995 14.8962C7.77712 14.6873 7.54432 14.4783 7.31151 14.2693C7.21807 14.1854 7.12464 14.1015 7.0312 14.0176C6.84432 13.8499 6.65744 13.6821 6.47056 13.5143C6.42427 13.4728 6.37797 13.4312 6.33027 13.3884C6.23727 13.3049 6.14427 13.2214 6.05127 13.1379C5.81105 12.9222 5.57079 12.7067 5.33044 12.4913C4.85983 12.0694 4.38956 11.6471 3.92334 11.216C4.07106 10.3205 4.23953 9.43379 4.41294 8.54708C4.44097 8.40326 4.469 8.25944 4.49701 8.11561C4.55523 7.81681 4.61354 7.51804 4.67192 7.21929C4.74679 6.83612 4.8215 6.45289 4.89617 6.06965C4.9538 5.77387 5.01148 5.4781 5.06918 5.18234C5.09677 5.04091 5.12435 4.89949 5.15193 4.75806C5.19026 4.5615 5.22865 4.36497 5.26707 4.16845C5.27844 4.1101 5.28981 4.05175 5.30152 3.99163C5.31197 3.93824 5.32242 3.88484 5.33319 3.82983C5.34224 3.78349 5.35129 3.73716 5.36061 3.68942C5.38297 3.58029 5.40856 3.47244 5.43461 3.36487C5.5354 3.302 5.5354 3.302 5.66976 3.24855C5.71988 3.2282 5.77 3.20785 5.82164 3.18688C5.87623 3.16569 5.93081 3.1445 5.98706 3.12267C6.04279 3.10045 6.09853 3.07824 6.15595 3.05535C6.2741 3.00848 6.39234 2.96202 6.51066 2.91595C6.69194 2.84523 6.87286 2.77291 7.05376 2.70039C7.16841 2.65512 7.28309 2.60994 7.39778 2.56487C7.47922 2.53227 7.47922 2.53227 7.5623 2.49901C7.63817 2.46975 7.63817 2.46975 7.71557 2.4399C7.76003 2.42248 7.80448 2.40505 7.85029 2.3871C7.97408 2.35724 8.04695 2.36968 8.16465 2.42542Z" fill="#1A73E8"/>
<path d="M19.0126 3.10122C19.1568 3.17153 19.2849 3.2315 19.4373 3.25844C19.6046 3.39033 19.6114 3.46077 19.6699 3.70846C19.7 3.86203 19.7287 4.01612 19.7563 4.17056C19.7724 4.25411 19.7884 4.33766 19.8049 4.42374C19.8486 4.65193 19.8908 4.8806 19.9328 5.10942C19.9768 5.34766 20.0221 5.58542 20.0674 5.8232C20.1326 6.16657 20.1975 6.51008 20.2618 6.85378C20.3772 7.47033 20.4965 8.08535 20.6177 8.69981C20.6349 8.78748 20.6522 8.87515 20.6694 8.96283C20.7352 9.29688 20.801 9.63092 20.867 9.96491C20.912 10.1934 20.9568 10.4219 21.0014 10.6505C21.0214 10.7516 21.0214 10.7516 21.0419 10.8548C21.0539 10.9165 21.0659 10.9782 21.0782 11.0418C21.0887 11.0952 21.0992 11.1486 21.11 11.2037C21.1322 11.3502 21.1322 11.3502 21.1322 11.6186C20.5284 12.4421 19.6296 12.9355 18.7922 13.0278C18.7964 12.9339 18.7964 12.9339 18.8007 12.8382C18.8225 11.9925 18.6949 11.3279 18.2828 10.6726C18.2072 10.5449 18.2072 10.5449 18.1605 10.4026C18.0954 10.241 18.0349 10.2205 17.9147 10.1423C17.8306 10.0431 17.7485 9.94059 17.6679 9.83612C17.4475 9.55437 17.22 9.28949 16.9859 9.0293C16.822 8.84459 16.6613 8.65514 16.5009 8.46469C16.2564 8.17467 16.0089 7.89063 15.7584 7.61042C15.4719 7.28722 15.1907 6.95519 14.9084 6.62496C14.6376 6.30829 14.3666 5.99253 14.0908 5.68407C13.8838 5.45221 13.6805 5.21504 13.4784 4.97528C13.232 4.6832 12.9834 4.39564 12.7305 4.1142C12.6397 4.0123 12.5497 3.90889 12.4605 3.80437C12.0809 3.36294 11.8132 3.10781 11.3004 3.1273C10.8183 3.23491 10.3559 3.63299 10.0658 4.17003C9.88605 4.55731 9.73011 4.96005 9.58001 5.3703C9.27883 6.18721 8.93666 6.82121 8.31687 7.21068C8.08483 7.28095 7.80028 7.35534 7.58618 7.18421C7.49499 6.9724 7.53965 6.82051 7.57952 6.58578C7.62958 6.38657 7.68792 6.19297 7.7471 5.99862C7.90538 5.45688 7.99557 4.96233 8.03655 4.37999C8.10326 3.47079 8.29693 2.8493 8.79828 2.22402C11.7753 -0.985929 15.9147 1.58742 19.0126 3.10122Z" fill="#1A73E8"/>
<path d="M22.7012 0.118599C22.7321 0.13884 22.763 0.159081 22.7947 0.179936C23.0188 0.417749 23.1112 0.754689 23.1828 1.11964C23.1957 1.18413 23.1957 1.18413 23.2089 1.24993C23.2377 1.3947 23.2657 1.53973 23.2937 1.68479C23.3145 1.79053 23.3354 1.89626 23.3563 2.00196C23.4152 2.30059 23.4733 2.59948 23.5312 2.89845C23.571 3.10361 23.611 3.30871 23.651 3.51379C23.846 4.51438 24.0397 5.51546 24.233 6.5167C24.3568 7.15796 24.4808 7.79917 24.6048 8.44036C24.6477 8.66261 24.6906 8.88488 24.7335 9.10715C24.7595 9.24175 24.7855 9.37634 24.8115 9.51094C24.8234 9.57231 24.8352 9.63367 24.8474 9.6969C24.8582 9.75297 24.8691 9.80904 24.8802 9.86681C24.8896 9.91545 24.899 9.96408 24.9087 10.0142C24.9311 10.125 24.957 10.2344 24.9834 10.3436C24.9904 10.4747 24.9941 10.6063 24.9956 10.7378C24.9968 10.8068 24.9981 10.8759 24.9994 10.947C24.9706 11.3104 24.8368 11.512 24.6346 11.7387C24.4677 11.8892 24.2824 11.947 24.0908 12.0141C24.0477 12.03 24.0045 12.0459 23.9601 12.0623C23.8693 12.0955 23.7783 12.1283 23.6873 12.1605C23.5487 12.2098 23.4104 12.2607 23.2721 12.312C23.1834 12.3442 23.0948 12.3763 23.0061 12.4083C22.9651 12.4234 22.924 12.4385 22.8818 12.4541C22.5091 12.5848 22.2118 12.6231 21.8633 12.3567C21.57 11.9898 21.511 11.5085 21.4151 10.996C21.3961 10.8982 21.3771 10.8004 21.3581 10.7026C21.3068 10.4383 21.2564 10.1737 21.2062 9.90903C21.1535 9.63201 21.0999 9.35531 21.0464 9.07858C20.9686 8.67541 20.891 8.27214 20.8137 7.86874C20.6806 7.17381 20.5455 6.47965 20.4092 5.78589C20.3448 5.45799 20.2805 5.13003 20.2162 4.80207C20.165 4.54054 20.1137 4.27903 20.0622 4.01756C20.0139 3.77207 19.9659 3.52649 19.9181 3.28083C19.9006 3.19116 19.883 3.10152 19.8653 3.01192C19.6007 1.67082 19.6007 1.67082 19.8158 1.15032C20.0421 0.79648 20.2902 0.658889 20.6156 0.546911C20.6587 0.531097 20.7018 0.515282 20.7461 0.498989C20.8367 0.466032 20.9273 0.433696 21.018 0.401956C21.1563 0.353509 21.2942 0.303068 21.432 0.252282C21.5204 0.22036 21.6088 0.188551 21.6973 0.156869C21.7586 0.134545 21.7586 0.134545 21.8212 0.111769C22.1175 0.00907321 22.4162 -0.0804171 22.7012 0.118599Z" fill="#1A73E8"/>
<path d="M3.3078 0.15414C3.35076 0.16941 3.39371 0.18468 3.43797 0.200412C3.52846 0.232871 3.61888 0.265657 3.70924 0.298751C3.84644 0.348588 3.98398 0.396144 4.12161 0.443657C4.2099 0.475628 4.29817 0.507734 4.38641 0.539988C4.42704 0.55371 4.46768 0.567431 4.50955 0.581568C4.81145 0.696025 5.04511 0.87204 5.23974 1.21706C5.44224 1.77307 5.27271 2.37152 5.15747 2.93188C5.13711 3.03503 5.11686 3.13823 5.0967 3.24146C5.05373 3.46065 5.01017 3.67959 4.96616 3.89839C4.89869 4.2344 4.83331 4.57113 4.76841 4.9081C4.64551 5.54566 4.52128 6.18272 4.39675 6.81969C4.32774 7.17283 4.25892 7.52603 4.19006 7.87922C4.13386 8.16737 4.07752 8.45547 4.02087 8.74345C3.99881 8.85566 3.97675 8.96787 3.9547 9.08008C3.94392 9.13493 3.93313 9.18978 3.92203 9.24629C3.85785 9.57373 3.79502 9.90159 3.73335 10.2299C3.69459 10.4359 3.65526 10.6417 3.61586 10.8475C3.59776 10.9429 3.57992 11.0384 3.56239 11.1341C3.37339 12.1639 3.37339 12.1639 2.98806 12.4863C2.50928 12.67 1.98856 12.3883 1.52333 12.2135C1.40039 12.1675 1.27722 12.1229 1.15401 12.0783C1.07496 12.049 0.995933 12.0196 0.91692 11.9901C0.880504 11.977 0.844087 11.964 0.806568 11.9505C0.52289 11.842 0.308354 11.6814 0.102631 11.3833C-0.146971 10.6433 0.118513 9.75164 0.267736 9.01265C0.293423 8.88254 0.319043 8.75241 0.344601 8.62225C0.41262 8.27684 0.481524 7.93177 0.550627 7.58677C0.621625 7.23156 0.691849 6.87606 0.762134 6.52058C0.858928 6.03137 0.955975 5.54226 1.05337 5.05328C1.18999 4.36721 1.32487 3.68056 1.45737 2.99295C1.48658 2.84186 1.5158 2.69076 1.54503 2.53967C1.58351 2.34063 1.6219 2.14155 1.65991 1.94233C1.69326 1.76779 1.72712 1.59346 1.76111 1.41915C1.77009 1.37129 1.77908 1.32342 1.78834 1.2741C1.87137 0.853134 1.96764 0.457879 2.22024 0.181139C2.59049 -0.0899488 2.9215 0.0150031 3.3078 0.15414Z" fill="#1A73E8"/>
</svg>
