<svg width="23" height="26" viewBox="0 0 23 26" fill="none" xmlns="http://www.w3.org/2000/svg">
<ellipse cx="8.70123" cy="7.03158" rx="0.679746" ry="0.614099" fill="#E4EDFD"/>
<path d="M8.71828 6.63208C8.48405 6.63208 8.29346 6.80428 8.29346 7.01591C8.29346 7.22751 8.48405 7.3997 8.71828 7.3997C8.95253 7.3997 9.14314 7.22751 9.14314 7.01591C9.14314 6.80428 8.95255 6.63208 8.71828 6.63208ZM8.92725 7.06374H8.50936C8.48799 7.06374 8.47065 7.04577 8.47065 7.02646C8.47065 7.00715 8.48799 6.98917 8.50936 6.98917H8.92722C8.9486 6.98917 8.96591 7.00715 8.96591 7.02646C8.96591 7.04577 8.94863 7.06374 8.92725 7.06374Z" fill="#1A73E8"/>
<path d="M21.5701 8.47034C21.5701 7.53859 20.7263 6.77629 19.695 6.77629C18.6636 6.77629 17.8198 7.53864 17.8198 8.47034V11.435V3.38815C17.8198 2.4564 16.976 1.6941 15.9447 1.6941C14.9134 1.6941 14.0695 2.71053 14.0695 3.38815V8.47034V1.69405C14.0695 0.762298 13.2257 0 12.1944 0C11.163 0 10.3193 0.635257 10.3193 1.69405V8.47029V3.51519C10.3193 2.32935 9.47541 1.69405 8.44411 1.69405C7.41281 1.69405 6.56896 2.41403 6.56896 3.3881V12.7055L5.72512 11.562C4.78755 10.0797 2.53733 9.40205 1.03721 9.91026C0.802805 9.95262 0.662183 10.0797 0.474668 10.1644C-0.0878749 10.5032 0.00585565 10.8844 0.00585565 11.0114C0.00585565 11.1385 2.67795 13.5949 4.22496 16.0936C4.22496 16.0936 5.58445 18.1265 7.03772 19.4818V20.7523C7.03772 22.8699 8.91287 24.564 11.2568 24.564H15.9447C17.773 24.564 19.6482 23.1664 20.0701 21.557C20.1639 21.1758 20.3514 20.6252 20.6326 20.3288C21.0546 19.9052 21.5702 18.8465 21.5702 17.3642C21.5702 17.0677 21.5702 13.9337 21.5702 13.5525V8.47034H21.5701Z" fill="#1A73E8"/>
<path d="M7.03788 13.976C6.85036 13.976 6.70974 13.8913 6.61596 13.7219L6.14714 12.8748C6.05336 12.6631 6.14714 12.409 6.33466 12.3243C6.56906 12.2395 6.85031 12.3243 6.94409 12.4937L7.41291 13.3407C7.50669 13.5525 7.41291 13.8065 7.22539 13.8913C7.1785 13.976 7.13166 13.976 7.03788 13.976Z" fill="#E4EDFD"/>
<path d="M10.3194 11.0114C10.0381 11.0114 9.85059 10.842 9.85059 10.5879V3.38814C9.85059 3.134 10.0381 2.9646 10.3194 2.9646C10.6007 2.9646 10.7882 3.134 10.7882 3.38814V10.5879C10.7882 10.842 10.6007 11.0114 10.3194 11.0114Z" fill="#E4EDFD"/>
<path d="M14.0689 11.0114C13.7876 11.0114 13.6001 10.842 13.6001 10.5879V3.38814C13.6001 3.134 13.7876 2.9646 14.0689 2.9646C14.3502 2.9646 14.5377 3.134 14.5377 3.38814V10.5879C14.5377 10.842 14.3502 11.0114 14.0689 11.0114Z" fill="#E4EDFD"/>
<path d="M17.8194 13.129C17.5381 13.129 17.3506 12.9596 17.3506 12.7055V8.04683C17.3506 7.7927 17.5381 7.62329 17.8194 7.62329C18.1007 7.62329 18.2882 7.7927 18.2882 8.04683V12.7055C18.2882 12.9596 18.1006 13.129 17.8194 13.129Z" fill="#E4EDFD"/>
<path d="M18.2888 21.5993C18.1013 21.5993 17.9138 21.4722 17.82 21.3028C17.7731 21.0911 17.9138 20.837 18.1482 20.7946L18.3826 20.7523C19.3201 20.5405 19.4608 20.4981 19.7421 20.1593C19.8827 19.9899 20.2109 19.9476 20.3984 20.0746C20.5859 20.2016 20.6328 20.4981 20.4922 20.6675C20.0234 21.2605 19.5546 21.3452 18.617 21.5993H18.4295C18.3826 21.5993 18.3357 21.5993 18.2888 21.5993Z" fill="#E4EDFD"/>
<path d="M1.80693 25.0001C1.71315 25.0001 1.61942 24.9577 1.52563 24.9153C1.33812 24.7883 1.29123 24.4918 1.47874 24.3224L21.168 2.29962C21.3086 2.13021 21.6368 2.08785 21.8243 2.25725C22.0118 2.38429 22.0587 2.68079 21.9181 2.85019L2.22885 24.873C2.08818 24.9577 1.94755 25.0001 1.80693 25.0001Z" fill="#E4EDFD" stroke="#E4EDFD"/>
</svg>
