<svg width="800" height="578" viewBox="0 0 800 578" fill="none" xmlns="http://www.w3.org/2000/svg">
<path d="M88.8889 0C65.3141 0 42.7049 9.36505 26.035 26.0349C9.36505 42.7048 0 65.3141 0 88.8889L0 488.889C0 512.464 9.36505 535.073 26.035 551.743C42.7049 568.413 65.3141 577.778 88.8889 577.778H266.667V0H88.8889Z" fill="#169B62"/>
<path d="M266.666 0H533.333V577.778H266.666V0Z" fill="#EEEEEE"/>
<path d="M711.112 0H533.334V577.778H711.112C734.687 577.778 757.296 568.413 773.966 551.743C790.636 535.073 800.001 512.464 800.001 488.889V88.8889C800.001 65.3141 790.636 42.7048 773.966 26.0349C757.296 9.36505 734.687 0 711.112 0Z" fill="#FF883E"/>
</svg>
