<svg width="23" height="25" viewBox="0 0 23 25" fill="none" xmlns="http://www.w3.org/2000/svg">
<path fill-rule="evenodd" clip-rule="evenodd" d="M3.65625 10.608V8.13253C3.65625 3.64106 7.05609 0 11.25 0C15.4439 0 18.8437 3.64106 18.8437 8.13253V10.608C20.0979 10.7083 20.9145 10.9614 21.5115 11.6008C22.5 12.6595 22.5 14.3634 22.5 17.7711C22.5 21.1788 22.5 22.8827 21.5115 23.9413C20.5229 25 18.9319 25 15.75 25H6.75C3.56802 25 1.97703 25 0.988515 23.9413C0 22.8827 0 21.1788 0 17.7711C0 14.3634 0 12.6595 0.988515 11.6008C1.58547 10.9614 2.40216 10.7083 3.65625 10.608ZM5.34375 8.13253C5.34375 4.63917 7.98807 1.80723 11.25 1.80723C14.5119 1.80723 17.1562 4.63917 17.1562 8.13253V10.5465C16.7254 10.5422 16.2579 10.5422 15.75 10.5422H6.75C6.24205 10.5422 5.77464 10.5422 5.34375 10.5465V8.13253Z" fill="currentColor"/>
</svg>
