<svg width="701" height="700" viewBox="0 0 701 700" fill="none" xmlns="http://www.w3.org/2000/svg">
<path d="M475 1.12456e-05C439.865 -0.00899881 405.217 8.21243 373.831 24.0054C342.446 39.7984 315.197 62.7238 294.267 90.9444C273.337 119.165 259.309 151.896 253.307 186.514C247.304 221.133 249.495 256.676 259.702 290.295L0 550V700H150L409.702 440.295C440.651 449.692 473.261 452.306 505.311 447.959C537.361 443.612 568.097 432.406 595.424 415.105C622.752 397.805 646.028 374.816 663.667 347.706C681.306 320.595 692.892 290.001 697.637 258.007C702.382 226.014 700.173 193.374 691.162 162.311C682.15 131.248 666.548 102.494 645.418 78.0065C624.288 53.5195 598.127 33.8758 568.718 20.4143C539.309 6.95273 507.343 -0.010214 475 1.12456e-05ZM475 400C457.786 399.99 440.667 397.444 424.195 392.445L395.525 383.75L374.345 404.93L294.817 484.46L260.352 450L225 485.353L259.468 519.817L219.82 559.468L185.352 525L150 560.353L184.468 594.817L129.29 650H50V570.71L295.058 325.653L316.237 304.468L307.555 275.8C296.869 240.575 297.564 202.877 309.539 168.069C321.514 133.26 344.161 103.115 374.257 81.9199C404.353 60.725 440.367 49.56 477.174 50.0133C513.982 50.4665 549.709 62.5149 579.275 84.4445C608.84 106.374 630.737 137.068 641.852 172.161C652.966 207.253 652.732 244.957 641.182 279.908C629.633 314.86 607.356 345.279 577.52 366.84C547.685 388.401 511.81 400.004 475 400Z" fill="currentColor"/>
<path d="M500 250C527.614 250 550 227.614 550 200C550 172.386 527.614 150 500 150C472.386 150 450 172.386 450 200C450 227.614 472.386 250 500 250Z" fill="currentColor"/>
</svg>
