<svg width="796" height="796" viewBox="0 0 796 796" fill="none" xmlns="http://www.w3.org/2000/svg">
<path d="M398 773.889C617.809 773.889 796 600.648 796 386.944C796 173.241 617.809 0 398 0C178.191 0 0 173.241 0 386.944C0 600.648 178.191 773.889 398 773.889Z" fill="#1A73E8"/>
<path d="M397.999 386.945C488.278 386.945 561.464 315.792 561.464 228.021C561.464 140.25 488.278 69.0977 397.999 69.0977C307.721 69.0977 234.535 140.25 234.535 228.021C234.535 315.792 307.721 386.945 397.999 386.945Z" fill="white"/>
<path d="M398.71 796C523.138 796 624.007 704.43 624.007 591.472C624.007 478.515 523.138 386.944 398.71 386.944C274.283 386.944 173.414 478.515 173.414 591.472C173.414 704.43 274.283 796 398.71 796Z" fill="white"/>
</svg>
