<svg width="682" height="800" viewBox="0 0 682 800" fill="none" xmlns="http://www.w3.org/2000/svg">
<path d="M184.406 0V271.702H236.62V52.2141H604.733L487.748 131.364C474.516 140.312 466.6 155.253 466.6 171.212V618.463H236.62V440.748H184.406V670.677H466.6V781.505C466.6 788.352 470.386 794.636 476.428 797.834C482.47 801.047 489.8 800.664 495.473 796.828L681.908 670.678V0H184.406Z" fill="#1A73E8"/>
<path d="M298.23 453.75C298.23 456.632 299.898 459.257 302.527 460.469C305.127 461.68 308.211 461.272 310.405 459.399L432.348 356.219L310.405 253.041C308.211 251.166 305.127 250.76 302.527 251.969C299.9 253.18 298.23 255.807 298.23 258.688V310.863H0V401.588H298.231V453.75H298.23Z" fill="#1A73E8"/>
</svg>
