<svg width="24" height="23" viewBox="0 0 24 23" fill="none" xmlns="http://www.w3.org/2000/svg">
<path d="M7.46667 11.0769C7.08021 10.5049 6.3474 10.3873 5.83333 10.8173C5.31927 11.2473 5.21354 12.0626 5.6 12.6346L6.98906 14.6953C7.16406 14.9549 7.13854 15.3159 6.93438 15.5431L6.46771 16.0623C6.22344 16.3341 5.82604 16.3138 5.60729 16.0177L2.33333 11.6448V5.62498C2.33333 4.90698 1.81198 4.3269 1.16667 4.3269C0.521354 4.3269 0 4.90698 0 5.62498V14.4844C0 14.9265 0.134896 15.3565 0.382813 15.7013L4.17813 21.1492C4.36042 21.4128 4.48438 21.713 4.55729 22.0294C4.62292 22.3093 4.8526 22.5 5.1151 22.5H9.91667C10.2375 22.5 10.5 22.2079 10.5 21.8509V17.3077C10.5 16.184 10.1719 15.0928 9.56667 14.1923L7.46667 11.0769ZM22.1667 4.3269C21.5214 4.3269 21 4.90698 21 5.62498V11.6448L17.726 16.0177C17.5073 16.3098 17.1063 16.3301 16.8656 16.0623L16.399 15.5431C16.1948 15.3159 16.1693 14.9549 16.3443 14.6953L17.7333 12.6346C18.1198 12.0626 18.0141 11.2473 17.5 10.8173C16.9859 10.3873 16.2531 10.5049 15.8667 11.0769L13.7667 14.1923C13.1615 15.0928 12.8333 16.184 12.8333 17.3077V21.8509C12.8333 22.2079 13.0958 22.5 13.4167 22.5H18.2182C18.4771 22.5 18.7104 22.3093 18.776 22.0294C18.849 21.713 18.9729 21.4128 19.1552 21.1492L22.9505 15.7013C23.1984 15.3565 23.3333 14.9265 23.3333 14.4844V5.62498C23.3333 4.90698 22.812 4.3269 22.1667 4.3269Z" fill="currentColor"/>
<path d="M6.99951 3.5302C6.99951 6.46364 8.87525 8.02684 10.2483 9.42603C10.7328 9.91977 11.1995 10.3846 11.6662 10.3846C12.1328 10.3846 12.5995 9.91977 13.0841 9.42603C14.4571 8.02684 16.3328 6.46364 16.3328 3.5302C16.3328 0.596743 13.7661 -1.48361 11.6662 1.33658C9.56625 -1.48361 6.99951 0.596743 6.99951 3.5302Z" fill="currentColor"/>
</svg>
