<svg width="24" height="25" viewBox="0 0 24 25" fill="none" xmlns="http://www.w3.org/2000/svg">
<path fill-rule="evenodd" clip-rule="evenodd" d="M11.7273 1.38662e-06H11.606C10.5578 -3.4758e-05 9.68368 -5.88147e-05 8.98977 0.0962785C8.25735 0.197977 7.59609 0.421676 7.0647 0.970435C6.53332 1.51919 6.31671 2.20209 6.21823 2.95846C6.15136 3.47216 6.13243 4.70057 6.12709 5.75381C3.7678 5.83339 2.35125 6.11781 1.36683 7.13442C1.39078e-07 8.54596 0 10.8178 0 15.3614C0 19.9051 1.39078e-07 22.177 1.36683 23.5884C2.73366 25 4.93355 25 9.33331 25H14C18.3997 25 20.5997 25 21.9665 23.5884C23.3333 22.177 23.3333 19.9051 23.3333 15.3614C23.3333 10.8178 23.3333 8.54596 21.9665 7.13442C20.982 6.11781 19.5656 5.83339 17.2062 5.75381C17.2009 4.70057 17.182 3.47216 17.1151 2.95846C17.0167 2.20209 16.8 1.51919 16.2686 0.970435C15.7373 0.421676 15.076 0.197977 14.3436 0.0962785C13.6497 -5.88147e-05 12.7756 -3.4758e-05 11.7273 1.38662e-06ZM15.4559 5.72516C15.4506 4.7051 15.4338 3.60731 15.3808 3.19928C15.3083 2.64329 15.1832 2.40535 15.0312 2.24834C14.8792 2.09133 14.6488 1.96215 14.1104 1.8874C13.5469 1.80916 12.7913 1.80723 11.6667 1.80723C10.542 1.80723 9.78647 1.80916 9.22296 1.8874C8.68459 1.96215 8.45418 2.09133 8.30214 2.24834C8.1501 2.40535 8.02501 2.64329 7.95263 3.19928C7.8995 3.60731 7.88271 4.7051 7.87743 5.72516C8.33408 5.72289 8.81866 5.72289 9.33333 5.72289H14C14.5147 5.72289 14.9993 5.72289 15.4559 5.72516ZM11.6667 9.63855C12.1499 9.63855 12.5417 10.0431 12.5417 10.5422V10.5545C13.8119 10.8849 14.875 11.9193 14.875 13.3534C14.875 13.8524 14.4832 14.257 14 14.257C13.5168 14.257 13.125 13.8524 13.125 13.3534C13.125 12.8907 12.6282 12.249 11.6667 12.249C10.7051 12.249 10.2083 12.8907 10.2083 13.3534C10.2083 13.8161 10.7051 14.4578 11.6667 14.4578C13.2824 14.4578 14.875 15.6142 14.875 17.3695C14.875 18.8036 13.8119 19.838 12.5417 20.1684V20.1807C12.5417 20.6798 12.1499 21.0843 11.6667 21.0843C11.1834 21.0843 10.7917 20.6798 10.7917 20.1807V20.1684C9.5214 19.838 8.45833 18.8036 8.45833 17.3695C8.45833 16.8705 8.85009 16.4659 9.33333 16.4659C9.81657 16.4659 10.2083 16.8705 10.2083 17.3695C10.2083 17.8322 10.7051 18.4739 11.6667 18.4739C12.6282 18.4739 13.125 17.8322 13.125 17.3695C13.125 16.9067 12.6282 16.2651 11.6667 16.2651C10.051 16.2651 8.45833 15.1088 8.45833 13.3534C8.45833 11.9193 9.5214 10.8849 10.7917 10.5545V10.5422C10.7917 10.0431 11.1834 9.63855 11.6667 9.63855Z" fill="currentColor"/>
</svg>
