<svg width="800" height="578" viewBox="0 0 800 578" fill="none" xmlns="http://www.w3.org/2000/svg">
<path d="M0 200H800V377.778H0V200Z" fill="#EEEEEE"/>
<path d="M711.111 0H88.8889C65.3141 0 42.7049 9.36505 26.035 26.0349C9.36505 42.7048 0 65.3141 0 88.8889L0 200H800V88.8889C800 65.3141 790.635 42.7048 773.965 26.0349C757.295 9.36505 734.686 0 711.111 0Z" fill="#AE1F28"/>
<path d="M88.8889 577.777H711.111C734.686 577.777 757.295 568.412 773.965 551.742C790.635 535.072 800 512.463 800 488.888V377.777H0V488.888C0 512.463 9.36505 535.072 26.035 551.742C42.7049 568.412 65.3141 577.777 88.8889 577.777Z" fill="#20478B"/>
</svg>
