<svg width="15" height="15" viewBox="0 0 15 15" fill="currentColor" xmlns="http://www.w3.org/2000/svg">
<path d="M14.4971 0.501953C14.499 0.523888 14.5009 0.556132 14.4971 0.601562C14.4849 0.746781 14.4332 0.942627 14.3438 1.16602C14.1614 1.62136 13.8815 2.05112 13.7178 2.21484L10.7158 5.2168L10.8018 5.50293L10.8086 5.52734V5.52637L12.918 13.2939C12.9371 13.3865 12.9354 13.4819 12.9111 13.5732C12.8876 13.6617 12.8437 13.7431 12.7842 13.8125L12.1553 14.4424L9.33008 9.32617L9.2959 9.26465L9.24609 9.21484L8.33594 8.30371L7.98242 7.9502L7.62891 8.30371L5.23828 10.6934C4.99796 10.907 4.73028 11.0882 4.44141 11.2295L4.05859 11.416L4.18262 11.8232L4.71484 13.5732C4.73401 13.6596 4.73254 13.7491 4.71094 13.835C4.68924 13.9211 4.64694 14.0003 4.58887 14.0674L4.38965 14.2695C4.37432 14.2847 4.35362 14.2938 4.33203 14.2939C4.31028 14.2939 4.28888 14.2849 4.27344 14.2695L3.01172 13.0088L3.00098 12.9971L2.99219 12.9873L2.98242 12.9775L2.02051 12.0176H2.01953L1.99707 11.9941L0.729492 10.7256C0.714839 10.7104 0.706177 10.6901 0.706055 10.6689C0.706055 10.6476 0.714724 10.6267 0.729492 10.6113L0.930664 10.4092C0.997826 10.3515 1.07804 10.3105 1.16406 10.2891C1.25054 10.2675 1.34092 10.2664 1.42773 10.2861L3.17676 10.8164L3.58398 10.9395L3.77051 10.5576C3.91191 10.2688 4.09214 10.0002 4.30566 9.75977L6.69629 7.37012L7.0498 7.01562L6.69531 6.66211L5.78516 5.75391L5.73535 5.7041L5.67383 5.66992L0.556641 2.84375L1.18262 2.21875C1.25298 2.15741 1.33648 2.11286 1.42676 2.08887C1.51738 2.06479 1.61224 2.06249 1.7041 2.08105L9.48535 4.19531V4.19434L9.49707 4.19824L9.7832 4.28418L12.7861 1.28125C12.9487 1.11785 13.3775 0.838562 13.833 0.65625C14.0565 0.566818 14.2531 0.514975 14.3984 0.50293C14.4432 0.499225 14.4751 0.500111 14.4971 0.501953Z" fill="none" stroke="#72777c"/>
</svg>