<svg width="24" height="21" viewBox="0 0 24 21" fill="none" xmlns="http://www.w3.org/2000/svg">
<path fill-rule="evenodd" clip-rule="evenodd" d="M22.1667 0C21.4197 0 20.7033 0.264952 20.175 0.73657L16.8004 3.74963C16.5106 4.00836 16.0901 4.11237 15.6925 4.02362L2.33333 1.04167L1.14457 2.10306C0.688956 2.50986 0.688956 3.16941 1.14457 3.5762C1.23324 3.65537 1.33562 3.72126 1.44778 3.77133L11.6667 8.33333L7 12.5H1.88771C1.44581 12.5 1.04183 12.7229 0.844208 13.0758L0 14.5833L4.66667 16.6667L7 20.8333L8.68842 20.0796C9.08366 19.9031 9.33333 19.5424 9.33333 19.1479V14.5833L14 10.4167L19.1094 19.5407C19.3976 20.0552 20.0984 20.2638 20.6747 20.0065C20.7869 19.9565 20.8892 19.8906 20.9779 19.8114L22.1667 18.75L18.8269 6.82217C18.7275 6.4672 18.844 6.09169 19.1338 5.83296L22.5084 2.8199C23.0366 2.34829 23.3333 1.70863 23.3333 1.04167C23.3333 0.46637 22.811 0 22.1667 0Z" fill="currentColor"/>
</svg>
