<svg width="21" height="25" viewBox="0 0 21 25" fill="none" xmlns="http://www.w3.org/2000/svg">
<g clip-path="url(#clip0_1178_1511)">
<path fill-rule="evenodd" clip-rule="evenodd" d="M13.0208 25L15.625 21.875V15.625L17.7824 13.0362C19.7358 10.692 20.8333 7.51253 20.8333 4.19733V0H17.3355C14.5729 0 11.9234 1.31696 9.96986 3.66117L7.8125 6.25H2.60417L0 9.375L13.0208 25ZM13.6719 10.9375C14.7505 10.9375 15.625 9.88817 15.625 8.59375C15.625 7.29933 14.7505 6.25 13.6719 6.25C12.5932 6.25 11.7188 7.29933 11.7188 8.59375C11.7188 9.88817 12.5932 10.9375 13.6719 10.9375Z" fill="currentColor"/>
<path d="M6.41589 21.4935L2.92217 17.301L0 23.4376L1.30208 25.0001L6.41589 21.4935Z" fill="currentColor"/>
</g>
<defs>
<clipPath id="clip0_1178_1511">
<rect width="20.8333" height="25" fill="white"/>
</clipPath>
</defs>
</svg>
