<svg width="15" height="15" viewBox="0 0 15 15" fill="none" xmlns="http://www.w3.org/2000/svg">
<path d="M7.49902 0.349609C7.89734 0.349609 8.22063 0.672896 8.2207 1.07129V2.49316H13.9277C14.3258 2.4933 14.6482 2.81569 14.6484 3.21387C14.6484 3.61224 14.326 3.93541 13.9277 3.93555H12.877L13.0781 4.41992L14.5078 7.87305L14.5088 7.875C14.6885 8.30166 14.7036 8.79587 14.5127 9.25684C14.1338 10.1715 13.0855 10.6063 12.1709 10.2275C11.2562 9.84865 10.8215 8.79959 11.2002 7.88477L12.6357 4.41992L12.8359 3.93555H8.2207V13.207H9.64258C10.0407 13.2073 10.3633 13.5304 10.3633 13.9287C10.3632 14.327 10.0407 14.6501 9.64258 14.6504H5.35645C4.95826 14.6502 4.63582 14.327 4.63574 13.9287C4.63574 13.5303 4.95821 13.2072 5.35645 13.207H6.77832V3.93555H2.16406L2.36426 4.41992L3.79492 7.87305V7.875C3.97463 8.30162 3.99067 8.79585 3.7998 9.25684C3.42088 10.1716 2.37174 10.6064 1.45703 10.2275C0.542386 9.84858 0.108497 8.79958 0.487305 7.88477L1.92188 4.41992L2.12305 3.93555H1.07129C0.672958 3.93552 0.349609 3.6123 0.349609 3.21387C0.349835 2.81562 0.673097 2.49319 1.07129 2.49316H6.77832V1.07129C6.7784 0.673027 7.10089 0.349818 7.49902 0.349609Z" stroke="#64748B" stroke-width="0.7"/>
</svg>
