<svg width="15" height="15" viewBox="0 0 15 15" fill="none" xmlns="http://www.w3.org/2000/svg">
<path d="M10.7549 7.59277C9.82533 9.39446 8.89958 11.1892 8.20605 12.5332C7.92056 13.0865 7.6732 13.5629 7.48242 13.9326C7.30448 13.6065 7.08822 13.2095 6.85938 12.79C6.37805 11.9077 5.84198 10.9252 5.49609 10.29L13.1934 2.86328C12.5034 4.20126 11.628 5.90048 10.7549 7.59277ZM4.30859 9.03027C3.75368 8.69896 2.88086 8.17649 2.08691 7.7002C1.70901 7.47349 1.34881 7.25762 1.0498 7.07812C1.39081 6.91304 1.82369 6.70325 2.32422 6.46094C3.59543 5.84551 5.30286 5.01966 7.0459 4.17578C8.73745 3.35683 10.4631 2.52082 11.8574 1.8457L4.30859 9.03027Z" fill="white" stroke="white"/>
</svg>
