<svg width="1963" height="2301" viewBox="0 0 1963 2301" fill="none" xmlns="http://www.w3.org/2000/svg">
<path d="M442.402 2167.61C431.421 2137.23 397.459 2121.08 366.255 2132.14C335.052 2143.19 319.158 2177.02 330.139 2207.4C341.119 2237.77 375.08 2253.93 406.284 2242.87C437.488 2231.81 453.382 2197.99 442.402 2167.61Z" stroke="black" stroke-width="60"/>
<path d="M1376.72 30.4854C1288.01 23.69 1211.02 89.3359 1203.24 176.996C1196.41 263.37 1262.37 340.621 1351.31 347.514C1440.16 354.399 1517.16 288.639 1524.93 201.911C1531.74 113.954 1466 38.2299 1376.72 30.4854Z" stroke="black" stroke-width="60"/>
<path d="M1318.32 445.383C1277.69 442.433 1238.1 456.43 1205.05 479.364L822.581 787.586L822.382 787.747L822.179 787.905C815.024 793.472 809.167 802.206 806.112 813.094L805.707 814.538L805.16 815.935L682.69 1128.54C682.658 1128.78 682.619 1129.07 682.575 1129.42C682.436 1130.53 682.178 1132.7 681.683 1135.27C680.263 1162.89 699.821 1186.94 727.129 1192.23L763.153 1199.21L749.154 1233.13L663.16 1441.48L655.503 1460.03H635.43C633.057 1460.03 630.544 1459.76 627.971 1459.13H627.737L627.332 1458.96C627.259 1458.94 627.185 1458.93 627.111 1458.91C624.548 1458.19 622.273 1457.21 620.296 1456.1L341.455 1342.78L341.438 1342.78L341.423 1342.77C333.253 1339.44 324.201 1339.1 313.667 1342.57L313.497 1342.63L313.326 1342.68C300.555 1346.73 289.013 1357.37 281.592 1374.66L34.668 1971.43L34.6348 1971.51C22.3179 2001.04 35.8529 2027.38 53.6719 2034.43L53.8887 2034.52L227.735 2104.94C248.006 2066.42 282.124 2035.31 326.12 2019.61H326.119C363.473 2006.16 402.264 2005.73 437.748 2016.3L786.055 1165.03L787.049 1162.6L788.451 1160.38C791.011 1156.33 792.661 1152.14 793.881 1147.31L794.384 1145.32L795.152 1143.42L811.619 1102.65L811.682 1102.5L811.746 1102.34L905.059 878.595L908.012 871.514L914.002 866.719L1047.57 759.827L1114.48 706.273L1095.57 789.87L892.481 1687.58L891.414 1692.29L888.919 1696.44L643.44 2103.97C637.092 2116.74 630.988 2133.14 629.646 2147.31C625.588 2201.12 665.981 2248.3 720.867 2252.53C758.809 2255.25 792.691 2236.5 814.033 2203.97L1077.4 1764.52C1080.8 1757.6 1087.48 1745.85 1091.46 1738.31C1094.05 1733.38 1096.25 1728.94 1097.85 1725.21C1099.66 1720.96 1099.81 1719.66 1099.7 1720.44L1099.87 1719.2L1100.14 1717.99L1164.17 1427.21L1176.55 1371.01L1215.54 1413.33L1490.9 1712.27L1496.67 1718.53L1498.29 1726.88L1585.01 2174.35C1596.24 2216.79 1630.55 2249.16 1674.24 2252.54L1674.41 2252.55L1674.58 2252.57C1729.03 2257.41 1776.16 2217.74 1780.96 2164.5C1780.91 2162.18 1780.66 2160.19 1780.28 2155.65C1779.95 2151.72 1779.66 2146.99 1779.89 2141.26L1689.11 1665.75L1689.11 1665.73L1689.1 1665.71C1687.24 1655.85 1683.57 1646.17 1678.33 1636.63L1341.74 1243L1331.95 1231.54L1335.29 1216.84L1421.29 839.096L1439.62 758.532L1477.25 832.095L1549.52 973.409L1549.81 973.976L1550.07 974.553C1552.02 978.79 1555.49 983.245 1561.73 988.313L1845.02 1181.9C1858.04 1187.87 1864.61 1190.39 1871.5 1190.85L1871.8 1190.87C1903.26 1193.26 1930.46 1169.9 1932.91 1139.85C1933.97 1121.71 1925.37 1103.36 1911.19 1091.86L1649.57 914.047L1643.2 909.72L1639.71 902.861L1447.49 525.798C1418.48 482.652 1372.54 449.913 1318.32 445.383Z" stroke="black" stroke-width="60"/>
</svg>
