<svg width="1963" height="2301" viewBox="0 0 1963 2301" fill="none" xmlns="http://www.w3.org/2000/svg">
<path d="M440.045 2168.44C429.54 2139.38 397.024 2123.88 367.105 2134.49C337.186 2145.09 321.99 2177.5 332.495 2206.56C343 2235.63 375.515 2251.12 405.434 2240.52C435.353 2229.92 450.55 2197.51 440.045 2168.44Z" stroke="black" stroke-width="65"/>
<path d="M1376.52 32.9775C1289.18 26.2864 1213.37 90.9325 1205.73 177.239C1199.04 262.191 1263.93 338.234 1351.5 345.021C1438.99 351.8 1514.79 287.051 1522.44 201.698C1529.13 115.175 1464.47 40.6191 1376.52 32.9775Z" stroke="black" stroke-width="65"/>
<path d="M1318.14 447.876C1278.23 444.98 1239.24 458.706 1206.56 481.357L824.15 789.533L823.934 789.707L823.714 789.878C817.03 795.078 811.447 803.333 808.52 813.77L808.08 815.333L807.488 816.846L685.133 1129.16C685.111 1129.33 685.083 1129.52 685.056 1129.74C684.921 1130.8 684.664 1132.97 684.171 1135.57C682.906 1161.81 701.513 1184.73 727.604 1189.78L766.631 1197.34L751.465 1234.09L665.472 1442.43L657.175 1462.53H635.43C632.959 1462.53 630.346 1462.26 627.669 1461.63H627.248L626.534 1461.34C626.504 1461.33 626.474 1461.32 626.443 1461.31C623.729 1460.56 621.313 1459.52 619.206 1458.36L340.514 1345.1L340.496 1345.09L340.479 1345.08C332.925 1342 324.49 1341.63 314.451 1344.95L314.267 1345.01L314.081 1345.07C302.144 1348.85 291.084 1358.88 283.885 1375.66L36.9775 1972.39L36.96 1972.43L36.9414 1972.47C25.0463 2000.99 38.3381 2025.67 54.5928 2032.11L54.71 2032.16L54.8271 2032.2L226.589 2101.78C247.259 2063.65 281.429 2032.91 325.273 2017.25H325.272C362.382 2003.89 400.898 2003.21 436.286 2013.27L783.74 1164.09L784.818 1161.45L786.337 1159.05L786.775 1158.33C788.922 1154.76 790.361 1151.04 791.457 1146.7L792.001 1144.54L792.834 1142.48L809.301 1101.72L809.369 1101.55L809.439 1101.38L902.751 877.632L905.95 869.961L912.439 864.768L1046 757.876L1118.5 699.858L1098.01 790.422L894.919 1688.13L893.764 1693.24L891.06 1697.73L645.634 2105.17C639.372 2117.79 633.442 2133.82 632.138 2147.51C628.194 2199.94 667.557 2245.93 721.098 2250.04C757.99 2252.66 791.017 2234.47 811.916 2202.64L1075.17 1763.37C1076.99 1759.64 1079.31 1755.39 1081.39 1751.61C1084 1746.84 1086.67 1742.04 1089.25 1737.14C1091.83 1732.24 1093.99 1727.86 1095.55 1724.23C1097.35 1720.03 1097.38 1718.98 1097.22 1720.1L1097.4 1718.77L1097.69 1717.45L1161.73 1426.67L1175.14 1365.79L1217.38 1411.64L1492.74 1710.57L1498.98 1717.36L1500.74 1726.41L1587.45 2173.79C1598.46 2215.31 1631.98 2246.76 1674.43 2250.05L1674.62 2250.06L1674.8 2250.08C1727.84 2254.79 1773.71 2216.2 1778.46 2164.42C1778.4 2162.27 1778.17 2160.38 1777.79 2155.86C1777.46 2151.94 1777.16 2147.19 1777.38 2141.45L1686.66 1666.22L1686.65 1666.19L1686.65 1666.17C1684.85 1656.69 1681.33 1647.34 1676.26 1638.06L1339.84 1244.62L1329.23 1232.21L1332.85 1216.28L1418.85 838.541L1438.72 751.264L1479.47 830.956L1551.74 972.271L1552.06 972.884L1552.34 973.51C1554.08 977.284 1557.24 981.432 1563.22 986.309L1846.26 1179.72C1859.17 1185.63 1865.31 1187.93 1871.67 1188.35L1871.83 1188.36L1871.99 1188.38C1902.1 1190.67 1928.05 1168.32 1930.41 1139.71C1931.43 1122.45 1923.24 1104.89 1909.69 1093.87L1648.17 916.115L1641.27 911.427L1637.48 903.996L1445.33 527.06C1416.65 484.479 1371.38 452.334 1318.14 447.876Z" stroke="black" stroke-width="65"/>
</svg>
