<svg width="2033" height="2353" viewBox="0 0 2033 2353" fill="none" xmlns="http://www.w3.org/2000/svg">
<path d="M336.732 2252.42C320.045 2206.26 344.309 2155.45 390.927 2138.92C437.544 2122.4 488.861 2146.43 505.547 2192.59C522.234 2238.75 497.97 2289.56 451.352 2306.09C404.735 2322.61 353.418 2298.58 336.732 2252.42Z" stroke="#98A2B3" stroke-width="70"/>
<path d="M1383.86 412.426C1278.66 404.273 1199.98 312.781 1208.22 209.513C1217.36 105.339 1308.85 27.435 1414.05 35.5877C1519.25 44.6463 1597.93 134.327 1589.7 239.406C1580.55 342.674 1489.07 420.578 1383.86 412.426Z" stroke="#98A2B3" stroke-width="70"/>
<path d="M41.8164 1994.96L288.818 1398C298.882 1374.45 316.263 1356.33 339.134 1349.09C355.601 1343.65 372.067 1343.65 387.619 1349.99L668.47 1464.13C669.385 1464.13 669.385 1465.04 670.299 1465.04L756.293 1256.69C714.211 1248.54 683.107 1210.49 686.766 1166.1C687.681 1162.48 687.681 1158.86 688.596 1155.23L812.097 839.993C816.671 823.687 825.819 809.194 838.627 799.229L1221.94 490.331C1259.44 464.061 1306.1 446.849 1355.5 450.473C1421.37 455.908 1475.34 495.766 1508.28 545.588L1701.3 924.238L1963.86 1102.69C1985.81 1119.9 1999.54 1147.99 1997.71 1176.97C1994.05 1224.08 1951.97 1259.41 1904.39 1255.78C1890.67 1254.88 1878.78 1249.44 1865.06 1243.1L1578.72 1047.43C1569.57 1040.19 1562.25 1032.04 1557.68 1022.07L1485.41 880.757L1399.41 1258.5L1737.9 1654.36C1745.22 1667.04 1750.7 1680.63 1753.45 1695.13L1844.93 2174.33C1844.02 2185.2 1845.85 2191.54 1845.85 2200.6C1840.36 2271.25 1778.15 2323.79 1706.79 2317.45C1648.24 2312.92 1604.33 2269.44 1590.61 2215.99L1503.7 1767.59L1228.34 1468.66L1164.3 1759.44C1162.47 1773.03 1144.18 1802.02 1138.69 1813.79L874.305 2254.95C847.775 2295.71 803.863 2321.07 753.548 2317.45C682.192 2312.02 629.132 2250.42 634.621 2179.76C636.451 2159.83 644.684 2139 652.003 2124.5L898.09 1715.96L1101.18 818.252L967.617 925.144L874.305 1148.89L857.838 1189.65C856.008 1196.9 853.264 1204.15 848.69 1211.4L489.165 2090.08C453.486 2071.96 411.405 2068.34 371.152 2082.83C325.411 2099.14 292.478 2135.37 278.755 2178.85L77.4945 2097.33C40.9016 2082.83 24.4348 2036.63 41.8164 1994.96Z" stroke="currentColor" stroke-width="70"/>
</svg>
