<svg width="800" height="578" viewBox="0 0 800 578" fill="none" xmlns="http://www.w3.org/2000/svg">
<path d="M0 90.2V177.778H125.067L0 90.2ZM103.644 577.778H288.889V448.067L103.644 577.778ZM511.111 448.089V577.778H696.333L511.111 448.089ZM0 400V487.578L125.111 400H0ZM696.378 0H511.111V129.711L696.378 0ZM800 487.6V400H674.867L800 487.6ZM800 177.778V90.2L674.911 177.778H800ZM288.889 0H103.644L288.889 129.711V0Z" fill="#00247D"/>
<path d="M558.666 399.999L774.488 551.132C785.028 540.274 792.603 526.891 796.488 512.266L636.155 399.999H558.666ZM288.888 399.999H241.311L25.5105 551.11C37.0883 562.888 51.9327 571.31 68.5772 575.221L288.888 420.955V399.999ZM511.11 177.777H558.688L774.488 26.6658C762.712 14.7164 747.785 6.35527 731.444 2.55469L511.11 156.821V177.777ZM241.311 177.777L25.5105 26.6658C14.9761 37.5319 7.39527 50.9112 3.48828 65.5325L163.822 177.777H241.311Z" fill="#CF1B2B"/>
<path d="M800 355.556H466.667V577.778H511.111V448.089L696.333 577.778H711.111C722.917 577.78 734.604 575.424 745.488 570.848C756.371 566.273 766.231 559.57 774.489 551.133L558.667 400H636.156L796.489 512.267C798.556 504.778 800 497.022 800 488.889V487.6L674.867 400H800V355.556ZM0 355.556V400H125.111L0 487.578V488.889C0 513.133 9.75556 535.067 25.5111 551.111L241.311 400H288.889V420.956L68.5778 575.2C75.1111 576.756 81.8667 577.778 88.8889 577.778H103.644L288.889 448.067V577.778H333.333V355.556H0ZM800 88.8889C800.013 65.5996 790.847 43.2434 774.489 26.6667L558.689 177.778H511.111V156.822L731.444 2.55556C724.788 0.922832 717.965 0.0652901 711.111 8.4084e-06H696.378L511.111 129.711V8.4084e-06H466.667V222.222H800V177.778H674.911L800 90.2V88.8889ZM288.889 8.4084e-06V129.711L103.644 8.4084e-06H88.8889C77.0805 -0.00513716 65.3903 2.35141 54.5062 6.93101C43.622 11.5106 33.7636 18.2207 25.5111 26.6667L241.311 177.778H163.822L3.48889 65.5333C1.284 73.1269 0.11052 80.9825 0 88.8889L0 90.2L125.067 177.778H0V222.222H333.333V8.4084e-06H288.889Z" fill="#EEEEEE"/>
<path d="M466.667 222.222V0H333.333V222.222H0V355.556H333.333V577.778H466.667V355.556H800V222.222H466.667Z" fill="#CF1B2B"/>
</svg>
