<svg width="800" height="578" viewBox="0 0 800 578" fill="none" xmlns="http://www.w3.org/2000/svg">
<path d="M787.667 44.4444C772.267 17.9778 743.933 0 711.111 0H400V44.4444H787.667ZM0 444.444H800V488.889H0V444.444ZM400 266.667H800V311.111H400V266.667ZM400 177.778H800V222.222H400V177.778ZM0 355.556H800V400H0V355.556ZM88.8889 577.778H711.111C743.933 577.778 772.267 559.8 787.667 533.333H12.3333C27.7333 559.8 56.0667 577.778 88.8889 577.778ZM400 88.8889H800V133.333H400V88.8889Z" fill="#B22334"/>
<path d="M1.51111 503.977C1.88889 506.043 2.31111 508.11 2.82222 510.132C3.4 512.377 4.11111 514.532 4.86667 516.71C6.84444 522.466 9.24444 528.021 12.2667 533.221L12.3333 533.332H787.667L787.711 533.243C790.694 528.004 793.165 522.49 795.089 516.777C796.552 512.606 797.682 508.326 798.467 503.977C799.378 499.088 800 494.066 800 488.888H0C0 494.066 0.622222 499.066 1.51111 503.977ZM0 399.999H800V444.443H0V399.999ZM0 311.11V355.554H800V311.11H400H0ZM400 222.221H800V266.666H400V222.221ZM400 133.332H800V177.777H400V133.332ZM2.84444 67.6434C3.4 65.3767 4.17778 63.2211 4.88889 61.0434C4.11718 63.2144 3.43512 65.4162 2.84444 67.6434ZM400 88.8878H800C800 83.71 799.378 78.6878 798.467 73.7767C797.688 69.4235 796.551 65.1422 795.067 60.9767C793.141 55.2392 790.662 49.7021 787.667 44.4434H400V88.8878Z" fill="#EEEEEE"/>
<path d="M400 0H88.8889C65.3141 0 42.7049 9.36505 26.035 26.0349C9.36505 42.7048 0 65.3141 0 88.8889L0 311.111H400V0Z" fill="#3C3B6E"/>
<path d="M44.4668 60.5767L58.2001 70.5545L52.9557 86.6656L66.6668 76.71L80.4001 86.6656L75.1557 70.5545L88.889 60.5767H71.9112L66.6668 44.4434L61.4446 60.5767H44.4668ZM88.9112 105.021L102.645 114.999L97.4001 131.11L111.111 121.154L124.845 131.11L119.6 114.999L133.333 105.021H116.356L111.111 88.8878L105.889 105.021H88.9112ZM177.8 105.021L191.533 114.999L186.289 131.11L200 121.154L213.733 131.11L208.489 114.999L222.222 105.021H205.245L200 88.8878L194.778 105.021H177.8ZM266.689 105.021L280.422 114.999L275.178 131.11L288.889 121.154L302.622 131.11L297.378 114.999L311.111 105.021H294.133L288.889 88.8878L283.667 105.021H266.689ZM88.9112 193.91L102.645 203.888L97.4001 219.999L111.111 210.043L124.845 219.999L119.6 203.888L133.333 193.91H116.356L111.111 177.777L105.889 193.91H88.9112ZM177.8 193.91L191.533 203.888L186.289 219.999L200 210.043L213.733 219.999L208.489 203.888L222.222 193.91H205.245L200 177.777L194.778 193.91H177.8ZM266.689 193.91L280.422 203.888L275.178 219.999L288.889 210.043L302.622 219.999L297.378 203.888L311.111 193.91H294.133L288.889 177.777L283.667 193.91H266.689ZM133.356 60.5767L147.089 70.5545L141.845 86.6656L155.556 76.71L169.289 86.6656L164.045 70.5545L177.778 60.5767H160.8L155.556 44.4434L150.333 60.5767H133.356ZM222.245 60.5767L235.978 70.5545L230.733 86.6656L244.445 76.71L258.178 86.6656L252.933 70.5545L266.667 60.5767H249.689L244.445 44.4434L239.222 60.5767H222.245ZM311.133 60.5767L324.867 70.5545L319.622 86.6656L333.333 76.71L347.067 86.6656L341.822 70.5545L355.556 60.5767H338.578L333.333 44.4434L328.111 60.5767H311.133ZM44.4668 149.466L58.2001 159.443L52.9557 175.554L66.6668 165.599L80.4001 175.554L75.1557 159.443L88.889 149.466H71.9112L66.6668 133.332L61.4446 149.466H44.4668ZM141.845 175.554L155.556 165.599L169.289 175.554L164.045 159.443L177.778 149.466H160.8L155.556 133.332L150.333 149.466H133.356L147.089 159.443L141.845 175.554ZM222.245 149.466L235.978 159.443L230.733 175.554L244.445 165.599L258.178 175.554L252.933 159.443L266.667 149.466H249.689L244.445 133.332L239.222 149.466H222.245ZM311.133 149.466L324.867 159.443L319.622 175.554L333.333 165.599L347.067 175.554L341.822 159.443L355.556 149.466H338.578L333.333 133.332L328.111 149.466H311.133ZM44.4668 238.354L58.2001 248.332L52.9557 264.443L66.6668 254.488L80.4001 264.443L75.1557 248.332L88.889 238.354H71.9112L66.6668 222.221L61.4446 238.354H44.4668ZM141.845 264.443L155.556 254.488L169.289 264.443L164.045 248.332L177.778 238.354H160.8L155.556 222.221L150.333 238.354H133.356L147.089 248.332L141.845 264.443ZM222.245 238.354L235.978 248.332L230.733 264.443L244.445 254.488L258.178 264.443L252.933 248.332L266.667 238.354H249.689L244.445 222.221L239.222 238.354H222.245ZM311.133 238.354L324.867 248.332L319.622 264.443L333.333 254.488L347.067 264.443L341.822 248.332L355.556 238.354H338.578L333.333 222.221L328.111 238.354H311.133Z" fill="white"/>
</svg>
