<svg width="22" height="25" viewBox="0 0 22 25" fill="none" xmlns="http://www.w3.org/2000/svg">
<path d="M10.2672 9.99997C13.5074 9.99997 16.134 7.7614 16.134 4.99998C16.134 2.23857 13.5074 0 10.2672 0C7.02706 0 4.40039 2.23857 4.40039 4.99998C4.40039 7.7614 7.02706 9.99997 10.2672 9.99997Z" fill="#1A73E8"/>
<path fill-rule="evenodd" clip-rule="evenodd" d="M16.8669 25C14.4469 25 13.2369 25 12.4852 24.3592C11.7334 23.7186 11.7334 22.6874 11.7334 20.625C11.7334 18.5626 11.7334 17.5314 12.4852 16.8907C13.2369 16.25 14.4469 16.25 16.8669 16.25C19.2868 16.25 20.4968 16.25 21.2485 16.8907C22.0003 17.5314 22.0003 18.5626 22.0003 20.625C22.0003 22.6874 22.0003 23.7186 21.2485 24.3592C20.4968 25 19.2868 25 16.8669 25ZM19.7533 19.6822C20.0875 19.3975 20.0875 18.9359 19.7533 18.6511C19.4192 18.3662 18.8776 18.3662 18.5435 18.6511L15.7261 21.0521L15.1903 20.5955C14.8562 20.3107 14.3145 20.3107 13.9804 20.5955C13.6463 20.8802 13.6463 21.342 13.9804 21.6267L15.121 22.5989C15.4552 22.8837 15.997 22.8837 16.3311 22.5989L19.7533 19.6822Z" fill="#1A73E8"/>
<path d="M15.2753 14.3842C13.7938 13.9802 12.0856 13.75 10.2669 13.75C4.59667 13.75 0 15.9886 0 18.75C0 21.4257 4.31569 23.6105 9.742 23.7436C9.70225 23.5857 9.67145 23.429 9.64725 23.2751C9.53329 22.553 9.53344 21.6706 9.53358 20.7325V20.5175C9.53344 19.5794 9.53329 18.697 9.64725 17.9749C9.77398 17.1712 10.077 16.2916 10.9297 15.5649C11.7826 14.8381 12.8146 14.5799 13.7575 14.4717C14.2152 14.4194 14.7275 14.3952 15.2753 14.3842Z" fill="#1A73E8"/>
</svg>
