<svg width="514" height="715" viewBox="0 0 514 715" fill="none" xmlns="http://www.w3.org/2000/svg">
<path d="M256.567 333.437C299.02 333.437 339.411 311.938 370.302 272.906C398.02 237.875 413.927 193.859 413.927 152.156C413.927 109.812 397.145 70.8281 366.661 42.3437C337.411 15.0469 298.317 0 256.567 0C214.817 0 175.724 15.0469 146.489 42.3437C116.005 70.8281 99.2236 109.812 99.2236 152.156C99.2236 193.875 115.114 237.891 142.849 272.906C173.724 311.953 214.114 333.437 256.567 333.437ZM180.63 78.8906C200.567 60.2656 227.536 50 256.567 50C285.599 50 312.567 60.2656 332.505 78.8906C352.755 97.8125 363.911 123.828 363.911 152.172C363.911 211.641 316.02 283.453 256.567 283.453C197.114 283.453 149.224 211.641 149.224 152.172C149.224 123.828 160.38 97.7969 180.63 78.8906Z" fill="currentColor"/>
<path d="M18.0363 443.969C1.81756 476.047 -3.38556 514.484 2.11444 561.5C8.14569 612.984 16.1301 656.828 26.5051 695.531C29.4269 706.453 39.3332 714.062 50.6457 714.062H462.505C473.818 714.062 483.724 706.453 486.661 695.531C497.036 656.766 505.005 612.922 511.005 561.516C516.521 514.516 511.318 476.078 495.099 443.984C478.521 411.156 448.302 382.016 410.021 361.906C401.614 357.5 392.771 353.469 383.755 349.953C376.521 347.125 368.38 347.828 361.739 351.828C329.177 371.484 292.818 381.875 256.568 381.875C220.333 381.875 183.958 371.484 151.396 351.828C144.755 347.812 136.614 347.125 129.38 349.953C120.364 353.484 111.521 357.5 103.114 361.922C64.8176 382.016 34.6144 411.156 18.0363 443.969ZM126.333 406.187C129.739 404.406 133.239 402.687 136.802 401.062C174.239 421.25 215.38 431.875 256.552 431.875C297.724 431.875 338.864 421.266 376.302 401.062C379.864 402.687 383.364 404.391 386.771 406.172C415.911 421.469 438.521 442.891 450.458 466.516C462.271 489.891 465.724 518.219 461.333 555.656V555.672C456.552 596.531 450.536 632.203 443.005 664.047H70.1301C62.6144 632.25 56.5676 596.578 51.7863 555.672C47.3957 518.203 50.8644 489.875 62.6769 466.5C74.5832 442.922 97.2082 421.484 126.333 406.187Z" fill="currentColor"/>
</svg>
