<svg width="21" height="24" viewBox="0 0 21 24" fill="none" xmlns="http://www.w3.org/2000/svg">
<path d="M14.9743 14.5833C15.3338 14.5833 15.6253 14.2569 15.6253 13.8542C15.6253 13.4515 15.3338 13.125 14.9743 13.125C14.6147 13.125 14.3232 13.4515 14.3232 13.8542C14.3232 14.2569 14.6147 14.5833 14.9743 14.5833Z" fill="currentColor"/>
<path d="M20.1824 11.6666H19.5314V5.83322C19.5314 5.02712 18.949 4.37489 18.2293 4.37489V2.91655C18.2293 2.42692 18.0978 2.04702 17.837 1.78671C17.451 1.40098 16.9464 1.45494 16.8943 1.46004C16.8709 1.46259 16.4113 1.51546 15.6609 1.60223L15.4523 0.960197C15.2062 0.202593 14.4598 -0.187146 13.7833 0.0884787L7.85528 2.50494C5.0571 2.83051 2.40801 3.14113 1.26641 3.28332C0.309706 3.40218 0.0203181 4.70593 0.000135786 5.4577C-0.0011663 5.50655 0.00697172 5.55358 0.0212946 5.59624C0.0102269 5.67353 0.000135786 5.75192 0.000135786 5.83322V21.8749C0.000135786 22.681 0.582493 23.3332 1.30222 23.3332H18.2293C18.949 23.3332 19.5314 22.681 19.5314 21.8749V16.0416H20.1824C20.5421 16.0416 20.8335 15.7153 20.8335 15.3124V12.3957C20.8335 11.9929 20.5421 11.6666 20.1824 11.6666ZM17.9038 6.56239C18.0838 6.56239 18.2293 6.72535 18.2293 6.92697C18.2293 7.12858 18.0838 7.29155 17.9038 7.29155H17.2527C17.0727 7.29155 16.9272 7.12858 16.9272 6.92697C16.9272 6.72535 17.0727 6.56239 17.2527 6.56239H17.9038ZM16.2762 6.92697C16.2762 7.12858 16.1307 7.29155 15.9507 7.29155H15.2996C15.1196 7.29155 14.9741 7.12858 14.9741 6.92697C14.9741 6.72535 15.1196 6.56239 15.2996 6.56239H15.9507C16.1307 6.56239 16.2762 6.72535 16.2762 6.92697ZM2.27878 21.1457H1.62774C1.44773 21.1457 1.30222 20.9827 1.30222 20.7811C1.30222 20.5795 1.44773 20.4166 1.62774 20.4166H2.27878C2.45879 20.4166 2.6043 20.5795 2.6043 20.7811C2.6043 20.9827 2.45879 21.1457 2.27878 21.1457ZM2.27878 7.29155H1.62774C1.44773 7.29155 1.30222 7.12858 1.30222 6.92697C1.30222 6.72535 1.44773 6.56239 1.62774 6.56239H2.27878C2.45879 6.56239 2.6043 6.72535 2.6043 6.92697C2.6043 7.12858 2.45879 7.29155 2.27878 7.29155ZM4.23191 21.1457H3.58086C3.40085 21.1457 3.25534 20.9827 3.25534 20.7811C3.25534 20.5795 3.40085 20.4166 3.58086 20.4166H4.23191C4.41192 20.4166 4.55743 20.5795 4.55743 20.7811C4.55743 20.9827 4.41192 21.1457 4.23191 21.1457ZM4.23191 7.29155H3.58086C3.40085 7.29155 3.25534 7.12858 3.25534 6.92697C3.25534 6.72535 3.40085 6.56239 3.58086 6.56239H4.23191C4.41192 6.56239 4.55743 6.72535 4.55743 6.92697C4.55743 7.12858 4.41192 7.29155 4.23191 7.29155ZM6.18503 21.1457H5.53399C5.35398 21.1457 5.20847 20.9827 5.20847 20.7811C5.20847 20.5795 5.35398 20.4166 5.53399 20.4166H6.18503C6.36505 20.4166 6.51055 20.5795 6.51055 20.7811C6.51055 20.9827 6.36505 21.1457 6.18503 21.1457ZM6.18503 7.29155H5.53399C5.35398 7.29155 5.20847 7.12858 5.20847 6.92697C5.20847 6.72535 5.35398 6.56239 5.53399 6.56239H6.18503C6.36505 6.56239 6.51055 6.72535 6.51055 6.92697C6.51055 7.12858 6.36505 7.29155 6.18503 7.29155ZM8.13816 21.1457H7.48712C7.3071 21.1457 7.16159 20.9827 7.16159 20.7811C7.16159 20.5795 7.3071 20.4166 7.48712 20.4166H8.13816C8.31817 20.4166 8.46368 20.5795 8.46368 20.7811C8.46368 20.9827 8.31817 21.1457 8.13816 21.1457ZM8.13816 7.29155H7.48712C7.3071 7.29155 7.16159 7.12858 7.16159 6.92697C7.16159 6.72535 7.3071 6.56239 7.48712 6.56239H8.13816C8.31817 6.56239 8.46368 6.72535 8.46368 6.92697C8.46368 7.12858 8.31817 7.29155 8.13816 7.29155ZM10.0913 21.1457H9.44024C9.26023 21.1457 9.11472 20.9827 9.11472 20.7811C9.11472 20.5795 9.26023 20.4166 9.44024 20.4166H10.0913C10.2713 20.4166 10.4168 20.5795 10.4168 20.7811C10.4168 20.9827 10.2713 21.1457 10.0913 21.1457ZM10.0913 7.29155H9.44024C9.26023 7.29155 9.11472 7.12858 9.11472 6.92697C9.11472 6.72535 9.26023 6.56239 9.44024 6.56239H10.0913C10.2713 6.56239 10.4168 6.72535 10.4168 6.92697C10.4168 7.12858 10.2713 7.29155 10.0913 7.29155ZM10.2052 4.37489H5.17103L14.006 0.773531C14.3442 0.635718 14.7176 0.83077 14.8406 1.20921L15.8693 4.37489H13.8843C13.6154 3.52613 12.8943 2.91655 12.0444 2.91655C11.1945 2.91655 10.4734 3.52613 10.2052 4.37489ZM14.3231 6.92697C14.3231 7.12858 14.1775 7.29155 13.9975 7.29155H13.3465C13.1665 7.29155 13.021 7.12858 13.021 6.92697C13.021 6.72535 13.1665 6.56239 13.3465 6.56239H13.9975C14.1775 6.56239 14.3231 6.72535 14.3231 6.92697ZM12.0444 3.64572C12.5252 3.64572 12.9402 3.94103 13.1658 4.37489H10.9227C11.1486 3.94103 11.5636 3.64572 12.0444 3.64572ZM12.0444 21.1457H11.3934C11.2134 21.1457 11.0678 20.9827 11.0678 20.7811C11.0678 20.5795 11.2134 20.4166 11.3934 20.4166H12.0444C12.2244 20.4166 12.3699 20.5795 12.3699 20.7811C12.3699 20.9827 12.2244 21.1457 12.0444 21.1457ZM12.0444 7.29155H11.3934C11.2134 7.29155 11.0678 7.12858 11.0678 6.92697C11.0678 6.72535 11.2134 6.56239 11.3934 6.56239H12.0444C12.2244 6.56239 12.3699 6.72535 12.3699 6.92697C12.3699 7.12858 12.2244 7.29155 12.0444 7.29155ZM13.9975 21.1457H13.3465C13.1665 21.1457 13.021 20.9827 13.021 20.7811C13.021 20.5795 13.1665 20.4166 13.3465 20.4166H13.9975C14.1775 20.4166 14.3231 20.5795 14.3231 20.7811C14.3231 20.9827 14.1775 21.1457 13.9975 21.1457ZM15.9507 21.1457H15.2996C15.1196 21.1457 14.9741 20.9827 14.9741 20.7811C14.9741 20.5795 15.1196 20.4166 15.2996 20.4166H15.9507C16.1307 20.4166 16.2762 20.5795 16.2762 20.7811C16.2762 20.9827 16.1307 21.1457 15.9507 21.1457ZM17.9038 21.1457H17.2527C17.0727 21.1457 16.9272 20.9827 16.9272 20.7811C16.9272 20.5795 17.0727 20.4166 17.2527 20.4166H17.9038C18.0838 20.4166 18.2293 20.5795 18.2293 20.7811C18.2293 20.9827 18.0838 21.1457 17.9038 21.1457ZM20.1824 14.9478C20.1824 15.1494 20.0369 15.3124 19.8569 15.3124H13.9975C13.8175 15.3124 13.672 15.1494 13.672 14.9478V12.7603C13.672 12.5587 13.8175 12.3957 13.9975 12.3957H19.8569C20.0369 12.3957 20.1824 12.5587 20.1824 12.7603V14.9478Z" fill="currentColor"/>
</svg>
