<svg width="747" height="750" viewBox="0 0 747 750" fill="none" xmlns="http://www.w3.org/2000/svg">
<path d="M637.525 108.85C570.275 41.6 477.375 0 374.75 0C169.525 0 3.125 166.375 3.125 371.625C3.125 439.925 21.55 503.9 53.675 558.9L52.725 557.15L0 749.7L196.975 698.025C248.25 726.5 309.425 743.25 374.525 743.25H374.675C579.9 743.175 746.225 576.775 746.225 371.55C746.225 268.975 704.675 176.125 637.5 108.875L637.525 108.85ZM374.675 680.475H374.55C316.575 680.475 262.3 664.475 215.975 636.65L217.375 637.425L206.1 630.75L89.225 661.425L120.4 547.45L113.05 535.775C83.425 489.225 65.825 432.5 65.825 371.65C65.825 201.1 204.1 62.825 374.65 62.825C545.2 62.825 683.475 201.1 683.475 371.65C683.475 542.2 545.25 680.475 374.675 680.475ZM544.075 449.2C534.8 444.55 489.15 422.125 480.65 419C472.125 415.9 465.925 414.375 459.725 423.675C453.575 432.95 435.775 453.85 430.35 460.05C424.95 466.275 419.5 467.025 410.225 462.4C381.475 450.75 356.775 435.225 335.3 416.1L335.55 416.325C315.575 397.825 298.45 376.65 284.625 353.3L283.925 352C278.525 342.725 283.35 337.7 287.975 333.075C292.15 328.925 297.275 322.225 301.9 316.825C305.55 312.35 308.675 307.225 311.05 301.725L311.2 301.3C312.275 299.125 312.9 296.6 312.9 293.9C312.9 290.625 311.975 287.575 310.375 284.975L310.425 285.05C308.075 280.4 289.525 234.7 281.8 216.1C274.25 198 266.575 200.475 260.9 200.175C255.5 199.925 249.3 199.875 243.1 199.875C233.225 200.125 224.45 204.575 218.4 211.45L218.375 211.5C198.325 230.525 185.875 257.35 185.875 287.075C185.875 287.725 185.875 288.4 185.9 289.05V288.95C189.175 325.625 202.925 358.55 224.075 385.375L223.775 385C263.875 444.475 317.325 492.05 380.05 524.1L382.4 525.175C396.1 531.375 413.65 538 431.6 543.675L435.325 544.7C446.375 548.2 459.1 550.225 472.3 550.225C479.875 550.225 487.325 549.55 494.525 548.275L493.75 548.375C520.475 542.8 542.65 526.675 556.175 504.65L556.4 504.225C560.525 495.075 562.925 484.4 562.925 473.175C562.925 468.55 562.525 464.025 561.75 459.625L561.825 460.1C559.525 456.225 553.325 453.925 544.025 449.25L544.075 449.2Z" fill="black"/>
</svg>
