<svg width="800" height="578" viewBox="0 0 800 578" fill="none" xmlns="http://www.w3.org/2000/svg">
<path d="M225.645 155.556L40.7334 14.1562C36.8195 16.6915 33.105 19.5219 29.6223 22.6229C20.2943 30.953 12.833 41.1834 7.72789 52.6C2.62278 64.0166 -0.010757 76.3836 5.79198e-05 88.8896V488.89C-0.0169378 503.764 3.7067 518.405 10.8285 531.464C17.9503 544.523 28.2415 555.582 40.7556 563.623L400 288.89L225.645 155.556Z" fill="#EEEEEE"/>
<path d="M148.489 146.6L188.112 226.888L276.756 239.777L212.6 302.289L227.756 390.555L148.489 348.866L69.2226 390.555L84.356 302.289L20.2227 239.777L108.845 226.888L148.489 146.6Z" fill="#DE200F"/>
<path d="M166.668 232.4C146.291 215.733 137.957 203.689 123.157 180.556C108.357 157.422 88.8906 160.178 80.5573 180.556C67.6017 183.333 63.8906 197.222 63.8906 197.222C85.1795 190.733 99.0684 204.622 100.935 234.267C102.802 263.911 95.3795 272.222 82.424 298.156C69.4684 324.089 84.2684 330.556 84.2684 330.556L92.8017 375.578H225.202L243.535 296.289H254.646C254.624 296.289 187.046 249.067 166.668 232.4Z" fill="#FFD200"/>
<path d="M129.155 256.244L121.511 261.489C121.511 261.489 135.399 291.911 155.533 296.289C175.666 300.666 240.799 307.911 240.799 307.911L243.488 296.289C243.488 296.289 176.133 288.177 159.222 285.4C142.311 282.622 129.155 256.244 129.155 256.244ZM112.488 331.266C112.488 331.266 140.955 328.911 155.555 331.266C169.177 333.466 226.511 336.644 234.088 337.066L236.599 326.177C228.844 324.933 168.266 315.266 151.377 314.266C133.333 313.2 115.288 321.955 112.488 331.266ZM127.088 352.777L130.555 375.577H225.177L229.222 358.133C183.155 349.022 127.088 352.777 127.088 352.777Z" fill="#FFAC33"/>
<path d="M226.068 376.687H91.8681L91.6903 375.798L83.2681 331.287C80.3617 329.549 78.171 326.83 77.0903 323.621C74.6681 316.954 76.1347 308.221 81.4014 297.643C83.3569 293.732 85.2014 290.221 86.8903 286.954C96.2236 269.043 101.357 259.176 99.8236 234.31C98.7792 217.732 93.9569 206.021 85.8903 200.421C80.0458 196.376 72.7569 195.665 64.2236 198.265L62.3125 198.843L62.8236 196.91C62.9792 196.332 66.7347 182.732 79.7569 179.576C83.8903 169.843 90.7347 163.865 98.5792 163.154C107.624 162.376 116.668 168.287 124.09 179.932C138.379 202.243 146.779 214.687 167.379 231.532C187.49 247.976 254.601 294.91 255.29 295.376L258.179 297.398H244.424L226.068 376.687ZM93.7125 374.487H224.29L242.624 295.198H251.112C237.979 285.976 183.735 247.821 165.957 233.265C145.112 216.198 136.624 203.665 122.224 181.154C115.268 170.243 106.801 164.621 98.7792 165.398C91.6236 166.043 85.3569 171.732 81.5792 180.976L81.3569 181.51L80.7792 181.621C71.4903 183.621 67.1792 191.798 65.6458 195.554C74.0014 193.465 81.2236 194.487 87.1569 198.598C95.8236 204.598 100.979 216.91 102.046 234.176C103.646 259.665 98.4014 269.732 88.8903 287.998C87.0426 291.533 85.2203 295.082 83.4236 298.643C78.5125 308.465 77.0458 316.798 79.1792 322.798C80.9792 327.798 84.5792 329.465 84.7347 329.532L85.2681 329.776L85.3792 330.332L93.7125 374.487Z" fill="#F15A29"/>
<path d="M797.179 66.6667C792.252 47.5861 781.125 30.6835 765.545 18.6159C749.966 6.54834 730.818 -8.20456e-05 711.112 7.70959e-10H88.8899C71.1566 7.70959e-10 54.6233 5.2 40.7566 14.1333L40.7344 14.1556L109.401 66.6667H797.179ZM797.179 511.111C792.249 530.19 781.12 547.09 765.542 559.157C749.963 571.224 730.818 577.774 711.112 577.778H88.8899C71.8191 577.801 55.105 572.893 40.7566 563.644L40.7344 563.622L109.401 511.111H797.179Z" fill="#319209"/>
<path d="M109.398 66.6662L399.998 288.888L109.398 511.111H797.176C799.021 503.977 799.998 496.6 799.998 488.888V88.8885C799.998 81.2662 798.976 73.7329 797.176 66.6662C797.176 66.6218 109.398 66.6662 109.398 66.6662Z" fill="#FFD200"/>
<path d="M225.645 155.555L341.889 244.444H800V155.555H225.645ZM225.645 422.221H800V333.332H341.889L225.645 422.221Z" fill="#DE200F"/>
<path d="M341.888 244.445L40.7322 14.1562C36.8183 16.6915 33.1038 19.5219 29.6211 22.6229L377.777 288.89L29.6211 555.134C33.0878 558.245 36.8211 561.067 40.7544 563.623L341.888 333.334H799.999V244.445H341.888Z" fill="#141414"/>
</svg>
